<svg xmlns="http://www.w3.org/2000/svg" version="1.1" viewBox="-5.0 -10.0 110.0 135.0">
 <path d="m50 41.023c7.4297 0 11.891 8.2852 7.8086 14.48-0.73828 1.1211-1.707 2.0742-2.8398 2.7852l6.0391 14.074c1.0664 2.4844-0.76562 5.25-3.4648 5.25h-15.086c-2.6992 0-4.5273-2.7656-3.4648-5.25l6.0391-14.074c-5.0547-3.1836-5.9102-10.262-1.6445-14.527 1.6953-1.6953 4.0312-2.7383 6.6133-2.7383zm-15.328 24.867c0.76953-0.20703 1.5625 0.25391 1.7695 1.0234 0.20703 0.76953-0.25391 1.5625-1.0234 1.7695l-7.2383 1.9414v6.0273c0 0.58594-0.34766 1.0859-0.84375 1.3164l-5.7773 3.3359c0.61719 2.8125-1.5234 5.4922-4.4141 5.4922-4.0117 0-6.0352-4.875-3.1953-7.7148 1.6641-1.6641 4.3281-1.7734 6.1211-0.24609l5.2148-3.0117v-6.3086h0.003906c0-0.63672 0.42578-1.2227 1.0703-1.3945zm0.35547-15.938c0.76953 0.20703 1.2266 0.99609 1.0234 1.7695-0.20703 0.76953-0.99609 1.2266-1.7695 1.0234l-8.3125-2.2266c-0.64453-0.17188-1.0703-0.75781-1.0703-1.3945h-0.003907v-6.3047l-5.2148-3.0117c-2.9219 2.4883-7.4453 0.40234-7.4453-3.4414 0-4.0117 4.8711-6.0352 7.7148-3.1953 1.0703 1.0703 1.5547 2.6328 1.2188 4.1641l5.8086 3.3516c0.48047 0.23438 0.8125 0.73047 0.8125 1.3008v6.0273zm0.16016 7.918c0.80078 0 1.4453 0.64844 1.4453 1.4453 0 0.80078-0.64844 1.4453-1.4453 1.4453l-12.738 0.003906c-1.0625 3.1523-5.0977 4.1289-7.4766 1.75-2.8398-2.8398-0.81641-7.7148 3.1953-7.7148 1.9648 0 3.6719 1.2617 4.2812 3.0703zm-19.199 25.555c1.0234 1.0234 2.7773 0.29688 2.7773-1.1484 0-1.4453-1.7539-2.1719-2.7773-1.1484-0.63281 0.62891-0.63281 1.6602 0 2.2969zm0.76172-48.691c-1.4453 0-2.1719 1.7539-1.1484 2.7773 1.0195 1.0195 2.7773 0.29688 2.7773-1.1484-0.003906-0.89844-0.73047-1.6289-1.6289-1.6289zm1.4219 22.957c-1.4453 0-2.1719 1.7539-1.1484 2.7773 1.0195 1.0195 2.7773 0.29688 2.7773-1.1484-0.003906-0.90234-0.73438-1.6289-1.6289-1.6289zm46.414 10.992c-0.76953-0.20703-1.2266-0.99609-1.0234-1.7695 0.20703-0.76953 0.99609-1.2266 1.7695-1.0234l8.3125 2.2266c0.64453 0.17187 1.0703 0.75781 1.0703 1.3945h0.003906v6.3086l5.2148 3.0117c2.9219-2.4883 7.4453-0.40625 7.4453 3.4414 0 4.0117-4.8711 6.0352-7.7148 3.1953-1.0742-1.0742-1.5547-2.6328-1.2188-4.168l-5.7773-3.3359c-0.5-0.22656-0.84375-0.73047-0.84375-1.3164v-6.0273zm1.1328-15.941c-0.76953 0.20703-1.5625-0.25391-1.7695-1.0234s0.25391-1.5625 1.0234-1.7695l7.2383-1.9414v-6.0273c0-0.57031 0.33203-1.0664 0.8125-1.3008l5.8086-3.3516c-0.61328-2.8125 1.5234-5.4883 4.4141-5.4883 4.0117 0 6.0352 4.8711 3.1953 7.7148-1.6641 1.6641-4.3281 1.7734-6.1211 0.24609l-5.2188 3.0117v6.3047h-0.003906c0 0.63672-0.42578 1.2227-1.0703 1.3945zm-0.90625 8.0234c-0.80078 0-1.4453-0.64844-1.4453-1.4453 0-0.80078 0.64844-1.4453 1.4453-1.4453h12.738c1.0625-3.1523 5.0977-4.1289 7.4766-1.75 2.8398 2.8398 0.81641 7.7148-3.1953 7.7148-1.9648 0-3.6719-1.2617-4.2812-3.0742l-12.738-0.003906zm18.047 23.133c1.4453 0 2.1719-1.7539 1.1484-2.7773-1.0195-1.0195-2.7773-0.29688-2.7773 1.1484 0.003906 0.90234 0.73047 1.6289 1.6289 1.6289zm1.5391-48.688c-1.0234-1.0195-2.7773-0.29688-2.7773 1.1484s1.7539 2.1719 2.7773 1.1484c0.63672-0.62891 0.63672-1.6602 0-2.2969zm-1.418 22.957c-1.0195-1.0195-2.7773-0.29688-2.7773 1.1484 0 1.4453 1.7539 2.1719 2.7773 1.1484 0.63672-0.63281 0.63281-1.6602 0-2.2969zm-68.445-55.883c-6.7422 0-12.25 5.5117-12.25 12.25v70.926c0 6.7422 5.5117 12.25 12.25 12.25h70.926c6.7422 0 12.25-5.5117 12.25-12.25l0.003906-70.926c0-6.7422-5.5117-12.25-12.25-12.25zm70.93 2.8906c5.1445 0 9.3594 4.2148 9.3594 9.3594v6.3125h-89.645v-6.3125c0-5.1445 4.2148-9.3594 9.3594-9.3594zm-80.285 18.562v61.723c0 5.1445 4.2148 9.3594 9.3594 9.3594h70.926c5.1445 0 9.3594-4.2148 9.3594-9.3594l-0.003907-61.723zm78.551-13.766c2.6992 0 4.0586 3.2773 2.1484 5.1875s-5.1875 0.55078-5.1875-2.1484c0-1.6758 1.3633-3.0391 3.0391-3.0391zm-11.059 0c2.6992 0 4.0586 3.2773 2.1484 5.1875-1.9102 1.9102-5.1875 0.55078-5.1875-2.1484 0-1.6758 1.3594-3.0391 3.0391-3.0391zm-11.059 0c2.6992 0 4.0586 3.2773 2.1484 5.1875-1.9102 1.9102-5.1875 0.55078-5.1875-2.1484 0-1.6758 1.3594-3.0391 3.0391-3.0391zm-7.0469 35.832c-2.5195-2.5195-6.6094-2.5195-9.1328 0-3.2188 3.2188-2.1914 8.6914 2.0195 10.5v0.003906c0.73047 0.3125 1.0703 1.1602 0.75781 1.8906l-6.5625 15.293c-0.25781 0.60547 0.16406 1.2305 0.80859 1.2305h15.09c0.64453 0 1.0664-0.625 0.80859-1.2305l-6.5664-15.289c-0.31641-0.73438 0.023438-1.582 0.75781-1.8984 4.2109-1.8086 5.2344-7.2852 2.0195-10.5z" fill-rule="evenodd"/>
<text x="0.0" y="117.5" font-size="5.0" font-weight="bold" font-family="Arbeit Regular, Helvetica, Arial-Unicode, Arial, Sans-serif" fill="#000000">Created by Sofiah</text><text x="0.0" y="122.5" font-size="5.0" font-weight="bold" font-family="Arbeit Regular, Helvetica, Arial-Unicode, Arial, Sans-serif" fill="#000000">from Noun Project</text></svg>