<?xml version="1.0" encoding="UTF-8" standalone="no"?>
<!-- Created with Inkscape (http://www.inkscape.org/) -->

<svg
   width="210mm"
   height="297mm"
   viewBox="0 0 210 297"
   version="1.1"
   id="svg1"
   inkscape:version="1.3.2 (091e20e, 2023-11-25)"
   sodipodi:docname="db.svg"
   inkscape:export-filename="db.svg"
   inkscape:export-xdpi="96"
   inkscape:export-ydpi="96"
   xmlns:inkscape="http://www.inkscape.org/namespaces/inkscape"
   xmlns:sodipodi="http://sodipodi.sourceforge.net/DTD/sodipodi-0.dtd"
   xmlns="http://www.w3.org/2000/svg"
   xmlns:svg="http://www.w3.org/2000/svg">
  <sodipodi:namedview
     id="namedview1"
     pagecolor="#ffffff"
     bordercolor="#000000"
     borderopacity="0.25"
     inkscape:showpageshadow="2"
     inkscape:pageopacity="0.0"
     inkscape:pagecheckerboard="0"
     inkscape:deskcolor="#d1d1d1"
     inkscape:document-units="mm"
     inkscape:zoom="0.2102413"
     inkscape:cx="397.16269"
     inkscape:cy="561.25984"
     inkscape:window-width="1800"
     inkscape:window-height="1097"
     inkscape:window-x="0"
     inkscape:window-y="44"
     inkscape:window-maximized="1"
     inkscape:current-layer="layer1" />
  <defs
     id="defs1" />
  <g
     inkscape:label="Layer 1"
     inkscape:groupmode="layer"
     id="layer1">
    <ellipse
       style="fill:#ffffff;stroke:#000000;stroke-width:1;stroke-dasharray:none"
       id="path3"
       cx="61.729851"
       cy="155.79869"
       rx="14.927765"
       ry="3.4278569" />
    <path
       id="path6"
       style="fill:none;stroke:#000000;stroke-width:1;stroke-dasharray:none"
       d="m 76.647461,162.28673 a 14.927765,3.4278569 0 0 1 -14.91761,3.30146 14.927765,3.4278569 0 0 1 -14.917607,-3.30142" />
    <path
       id="path6-0"
       style="fill:none;stroke:#000000;stroke-width:1;stroke-dasharray:none"
       d="M 76.647463,168.64838 A 14.927765,3.4278569 0 0 1 61.72985,171.94984 14.927765,3.4278569 0 0 1 46.812243,168.64842" />
    <path
       id="path6-2"
       style="fill:none;stroke:#000000;stroke-width:1;stroke-dasharray:none"
       d="m 76.64746,175.01003 a 14.927765,3.4278569 0 0 1 -14.917607,3.30146 14.927765,3.4278569 0 0 1 -14.917607,-3.30142" />
    <path
       id="path6-2-9"
       style="fill:none;stroke:#000000;stroke-width:1;stroke-dasharray:none"
       d="m 76.64746,181.37168 a 14.927765,3.4278569 0 0 1 -14.917607,3.30146 14.927765,3.4278569 0 0 1 -14.917607,-3.30142" />
    <path
       style="fill:#ffffff;stroke:#000000;stroke-width:1;stroke-dasharray:none"
       d="m 46.802084,155.79869 0.01016,25.57303"
       id="path8" />
    <path
       style="fill:#ffffff;stroke:#000000;stroke-width:1;stroke-dasharray:none"
       d="m 76.657614,155.79869 -0.01016,25.57299"
       id="path9" />
    <rect
       style="fill:#ffffff;stroke:#000000;stroke-width:0.2;stroke-dasharray:none"
       id="rect9"
       width="5.2447643"
       height="1.7666574"
       x="59.107468"
       y="161.81355" />
    <rect
       style="fill:#ffffff;stroke:#000000;stroke-width:0.2;stroke-dasharray:none"
       id="rect9-6"
       width="5.2447643"
       height="1.7666574"
       x="59.107468"
       y="167.89659" />
    <rect
       style="fill:#ffffff;stroke:#000000;stroke-width:0.2;stroke-dasharray:none"
       id="rect9-0"
       width="5.2447643"
       height="1.7666574"
       x="59.107468"
       y="174.39554" />
    <rect
       style="fill:#ffffff;stroke:#000000;stroke-width:0.2;stroke-dasharray:none"
       id="rect9-7"
       width="5.2447643"
       height="1.7666574"
       x="59.107468"
       y="180.77054" />
  </g>
</svg>
