<?xml version="1.0" encoding="UTF-8"?>
<svg width="1200pt" height="1200pt" version="1.1" viewBox="0 0 1200 1200" xmlns="http://www.w3.org/2000/svg">
 <path d="m411.37 931.08c8.625 5.2969 18.938 6.375 28.547 3.1406 9.6094-3.375 17.156-10.688 20.766-20.156l60.234-160.55c10.219-27.375 8.0625-57.938-6.1406-84-7.5469-14.062-11.531-29.391-11.531-45.469 0-25.688 10.078-49.922 28.312-68.062s42.844-28.219 68.531-27.938c25.922-0.14062 50.062 9.7031 68.297 27.938 18.234 18.141 28.312 42.375 28.312 68.062 0 16.078-3.8438 31.312-11.531 45.469-14.156 26.062-16.312 56.625-6.1406 84l60.234 160.55c3.6094 9.4688 11.156 16.922 20.766 20.156 3.6094 1.2188 7.3125 1.7812 11.062 1.7812 6.1406 0 12.141-1.6875 17.531-4.9219 107.77-66.141 172.08-180.84 172.08-307.08 0-96.234-37.547-186.71-105.7-254.76-68.062-67.781-158.29-105.23-254.29-105.23h-0.70312c-95.766 0-186.94 37.219-255 105.23-68.156 68.062-105.7 158.53-105.7 254.76 0 126.24 64.312 240.94 172.08 307.08zm-32.531-527.86c58.922-58.781 137.16-91.219 220.45-91.219h1.4062c83.297 0 161.53 32.391 220.45 91.219 59.062 58.922 91.547 137.39 91.547 220.78 0 103.55-50.062 198.24-134.63 256.69l-54-144c-5.3906-14.297-4.0781-30.469 3.375-44.297 11.297-20.859 17.297-44.531 17.297-68.297 0-38.625-15.141-74.859-42.469-102.14-27.234-27-63.234-41.859-101.3-41.859h-1.7812c-38.297 0-74.391 14.859-101.53 41.859-27.375 27.234-42.469 63.469-42.469 102.14 0 23.859 6 47.391 17.297 68.297 7.4531 13.781 8.7656 30 3.375 44.297l-54 144c-84.609-58.453-134.63-153.14-134.63-256.69 0-83.391 32.531-161.86 91.547-220.78z" fill="#fff"/>
</svg>
