<?xml version="1.0" encoding="utf-8" standalone="yes"?>
<!DOCTYPE svg PUBLIC "-//W3C//DTD SVG 1.1//EN" "http://www.w3.org/Graphics/SVG/1.1/DTD/svg11.dtd">
<svg width="733" height="708" viewBox="0 0 733 708" style="fill:none;stroke:none;fill-rule:evenodd;clip-rule:evenodd;stroke-linecap:round;stroke-linejoin:round;stroke-miterlimit:1.5;" version="1.1" xmlns="http://www.w3.org/2000/svg" xmlns:xlink="http://www.w3.org/1999/xlink"><style class="text-font-style fontImports" data-font-family="Shantell Sans">@import url('https://fonts.googleapis.com/css2?family=Shantell+Sans:wght@300..800&amp;display=block');</style><g id="items" style="isolation: isolate"><g id="blend" style="mix-blend-mode: normal"><g id="g-root-5.cu_sy_8xqyf1w95ern-fill" data-item-order="-183529" transform="translate(110, 566)"><g id="5.cu_sy_8xqyf1w95ern-fill" stroke="none" fill="#ffe4cb"><g><path d="M 152.3 63.4L 159.1 53.9L 143.2 41.7L 136 51.9ZM 143.2 41.7L 113 78.3L 132.3 86.4L 159.1 53.9ZM 132.3 86.4L 138.7 22.8L 119.2 16.6L 113 78.3ZM 119.2 16.6L 90.6 66.5L 110.5 72L 138.7 22.8ZM 110.5 72L 111.5 14.5L 91.6 11.5L 90.6 66.5ZM 91.6 11.5L 70.8 81.8L 90.7 85L 111.5 14.5ZM 90.7 85L 91.5 57L 71.7 51.4L 70.8 81.8ZM 71.7 51.4L 54.2 81.9L 74.5 86.8L 91.5 57ZM 74.5 86.8L 73.9 73.3L 53.2 59.6L 54.2 81.9ZM 53.2 59.6L 24.2 70.2L 44 84.3L 73.9 73.3ZM 44 84.3L 44.8 24.4L 24.9 18.9L 24.2 70.2ZM 24.9 18.9L 7.1 49.6L 27.7 54L 44.8 24.4ZM 27.7 54L 26.8 45.7L 6.9 47.8L 7.1 49.6ZM 115.9 87.1L 116.3 75.1L 96.7 63.8L 95.9 86.5ZM 96.7 63.8L 68.5 81.2L 91.3 90.6L 116.3 75.1ZM 91.3 90.6L 88.1 77.2L 65.3 67.5L 68.5 81.2ZM 65.3 67.5L 53 74.7L 77.4 83.5L 88.1 77.2ZM 77.4 83.5L 67 54.5L 48.2 61.3L 53 74.7ZM 114.4 75.9L 113.2 70L 90 54.1L 68.6 58L 89 74.6L 93.6 73.7L 94.7 79.6ZM 89 74.6L 87.4 15.2L 67.3 13.1L 68.6 58ZM 67.3 13.1L 54.8 65.8L 74.9 67.8L 87.4 15.2ZM 74.9 67.8L 72.7 12.1L 52.7 12.8L 54.8 65.8Z" fill-rule="nonzero"></path></g></g></g><g id="g-root-4.cu_sy_1unei0tw95g5g-fill" data-item-order="-183525" transform="translate(86, 482)"><g id="4.cu_sy_1unei0tw95g5g-fill" stroke="none" fill="#fff8b6"><g><path d="M 6.4 52L 3.8 67.3L 22.8 74.7L 26.1 55.3ZM 22.8 74.7L 52 29.3L 32.1 23.3L 3.8 67.3ZM 32.1 23.3L 30.8 96.1L 50.8 98.4L 52 29.3ZM 50.8 98.4L 69.3 15L 49.3 13L 30.8 96.1ZM 49.3 13L 50.9 104.3L 71 106.3L 69.3 15ZM 71 106.3L 91.1 16.2L 71.1 14L 50.9 104.3ZM 71.1 14L 70.8 96.4L 90.8 99.4L 91.1 16.2ZM 90.8 99.4L 116.6 14L 96.8 10.4L 70.8 96.4ZM 96.8 10.4L 91.7 89.3L 111.5 93.5L 116.6 14ZM 111.5 93.5L 141.4 12.6L 121.5 8.7L 91.7 89.3ZM 121.5 8.7L 118.6 93.2L 138.5 96.6L 141.4 12.6ZM 138.5 96.6L 163 19.4L 143.2 15.5L 118.6 93.2ZM 143.2 15.5L 137.2 92.1L 156.9 96.5L 163 19.4ZM 156.9 96.5L 184.1 24L 164.2 20.3L 137.2 92.1ZM 164.2 20.3L 163.7 100.9L 183.7 103.5L 184.1 24ZM 183.7 103.5L 199.3 41.7L 179.4 38.7L 163.7 100.9ZM 179.4 38.7L 177 87.4L 197 88.4L 199.3 41.7Z" fill-rule="nonzero"></path></g></g></g><g id="g-root-3.cu_sy_1lrrhrxw95gy5-fill" data-item-order="-183521" transform="translate(62, 374)"><g id="3.cu_sy_1lrrhrxw95gy5-fill" stroke="none" fill="#e9ffb9"><g><path d="M 8.6 64.7L 4.2 77.2L 22.7 84.8L 27.5 71.4ZM 22.7 84.8L 48.9 30.1L 29 25.3L 4.2 77.2ZM 29 25.3L 26.1 118.5L 46 121L 48.9 30.1ZM 46 121L 67.6 25.2L 47.5 23.2L 26.1 118.5ZM 47.5 23.2L 49.6 128.8L 69.7 130.7L 67.6 25.2ZM 69.7 130.7L 93 19.3L 73 16.8L 49.6 128.8ZM 73 16.8L 69 121.9L 88.9 124.3L 93 19.3ZM 88.9 124.3L 111.7 14.4L 91.6 12.9L 69 121.9ZM 91.6 12.9L 97.2 117.9L 117.2 119L 111.7 14.4ZM 117.2 119L 134.2 11.3L 114.3 9.4L 97.2 117.9ZM 114.3 9.4L 111.2 113.3L 131.2 116.4L 134.2 11.3ZM 131.2 116.4L 160.5 14.2L 140.4 11.4L 111.2 113.3ZM 140.4 11.4L 140.7 113.5L 160.7 114.9L 160.5 14.2ZM 160.7 114.9L 174.9 15.5L 154.8 14.4L 140.7 113.5ZM 154.8 14.4L 158.2 119.5L 178.3 121.6L 174.9 15.5ZM 178.3 121.6L 202.2 21.7L 182.2 19.6L 158.2 119.5ZM 182.2 19.6L 184.5 121.5L 204.6 123.2L 202.2 21.7ZM 204.6 123.2L 222.6 28L 202.6 26.3L 184.5 121.5ZM 202.6 26.3L 204.2 118.5L 224.3 121.4L 222.6 28ZM 224.3 121.4L 246.7 48.9L 227 45L 204.2 118.5ZM 227 45L 221.5 104.7L 241.4 106.5L 246.7 48.9Z" fill-rule="nonzero"></path></g></g></g><g id="g-root-2.cu_sy_18gxghpw95fda-fill" data-item-order="-183517" transform="translate(38, 242)"><g id="2.cu_sy_18gxghpw95fda-fill" stroke="none" fill="#c8ffe5"><g><path d="M 5 91.9L 4 90.5L 26.8 87.4L 21 79.8ZM 26.8 87.4L 45.8 39.2L 25.7 35.6L 4 90.5ZM 25.7 35.6L 27.6 139.4L 47.7 140.7L 45.8 39.2ZM 47.7 140.7L 64.5 29L 44.4 28L 27.6 139.4ZM 44.4 28L 50 148.1L 70.1 149.3L 64.5 29ZM 70.1 149.3L 91.5 24.3L 71.5 22.2L 50 148.1ZM 71.5 22.2L 66.2 150.3L 86.1 152.5L 91.5 24.3ZM 86.1 152.5L 110.7 16.8L 90.7 15L 66.2 150.3ZM 90.7 15L 90.3 149.7L 110.3 151.6L 110.7 16.8ZM 110.3 151.6L 135.4 15.8L 115.4 14L 90.3 149.7ZM 115.4 14L 115.5 145.6L 135.5 146.7L 135.4 15.8ZM 135.5 146.7L 150.2 9.7L 130.2 9.2L 115.5 145.6ZM 130.2 9.2L 138.2 145.1L 158.3 145.5L 150.2 9.7ZM 158.3 145.5L 171.8 11.6L 151.8 10.9L 138.2 145.1ZM 151.8 10.9L 155.1 141.7L 175.1 142.9L 171.8 11.6ZM 175.1 142.9L 195 10.5L 174.9 9.4L 155.1 141.7ZM 174.9 9.4L 180.9 140L 201 141L 195 10.5ZM 201 141L 219.8 13L 199.9 11L 180.9 140ZM 199.9 11L 193 140.9L 212.9 143.9L 219.8 13ZM 212.9 143.9L 243 21.2L 223 18.5L 193 140.9ZM 223 18.5L 219.1 154.9L 239 157L 243 21.2ZM 239 157L 263.4 26.5L 243.5 24.2L 219.1 154.9ZM 243.5 24.2L 238 150.1L 257.9 152.6L 263.4 26.5ZM 257.9 152.6L 281.6 42.6L 261.6 40.4L 238 150.1ZM 261.6 40.4L 261.5 135.9L 281.5 139.5L 281.6 42.6ZM 281.5 139.5L 303.6 81.4L 284.1 76.6L 261.5 135.9ZM 284.1 76.6L 282.2 91.7L 302.1 94.1L 303.6 81.4Z" fill-rule="nonzero"></path></g></g></g><g id="g-root-1.cu_sy_1413yd9w95g5j-fill" data-item-order="-183513" transform="translate(14, 98)"><g id="1.cu_sy_1413yd9w95g5j-fill" stroke="none" fill="#d1f4ff"><g><path d="M 11.2 86.4L 4.2 102.3L 22.4 110.6L 29.5 94.5ZM 22.4 110.6L 48.4 55.3L 28.7 50.2L 4.2 102.3ZM 28.7 50.2L 22.1 153.5L 41.9 156.5L 48.4 55.3ZM 41.9 156.5L 72 33.6L 52.1 30.8L 22.1 153.5ZM 52.1 30.8L 46.1 169.7L 66.1 172L 72 33.6ZM 66.1 172L 94.3 25.4L 74.3 23.5L 46.1 169.7ZM 74.3 23.5L 74.7 165.3L 94.7 166.7L 94.3 25.4ZM 94.7 166.7L 115.1 24.2L 95 22.8L 74.7 165.3ZM 95 22.8L 95.9 160.1L 116 161.5L 115.1 24.2ZM 116 161.5L 137.9 13.4L 117.9 11.9L 95.9 160.1ZM 117.9 11.9L 117.9 153.8L 137.9 155.2L 137.9 13.4ZM 137.9 155.2L 158.6 11.5L 138.7 9.6L 117.9 153.8ZM 138.7 9.6L 132.7 156.5L 152.6 158.8L 158.6 11.5ZM 152.6 158.8L 179.4 17.6L 159.4 15.6L 132.7 156.5ZM 159.4 15.6L 157.6 153.8L 177.6 155.6L 179.4 17.6ZM 177.6 155.6L 200.5 12.9L 180.6 10.9L 157.6 153.8ZM 180.6 10.9L 175.3 154.8L 195.2 157L 200.5 12.9ZM 195.2 157L 221.3 17.2L 201.2 15.5L 175.3 154.8ZM 201.2 15.5L 203.3 150.5L 223.4 151.3L 221.3 17.2ZM 223.4 151.3L 236.4 11.6L 216.4 10.9L 203.3 150.5ZM 216.4 10.9L 220.4 157.1L 240.5 158.7L 236.4 11.6ZM 240.5 158.7L 266.2 20.8L 246.3 18.6L 220.4 157.1ZM 246.3 18.6L 241.7 157.5L 261.7 159.5L 266.2 20.8ZM 261.7 159.5L 283.8 23.7L 263.8 22.1L 241.7 157.5ZM 263.8 22.1L 263.5 171L 283.5 172.5L 283.8 23.7ZM 283.5 172.5L 304.5 38L 284.4 36.7L 263.5 171ZM 284.4 36.7L 288.6 170.7L 308.7 172.2L 304.5 38ZM 308.7 172.2L 329.4 53.6L 309.5 51.5L 288.6 170.7ZM 309.5 51.5L 305.3 151.6L 325.2 155.3L 329.4 53.6ZM 325.2 155.3L 346.5 92.3L 326 90.3L 305.3 151.6ZM 326 90.3L 329 113.1L 348.9 110.4L 346.5 92.3Z" fill-rule="nonzero"></path></g></g></g><g id="g-root-tx_finetuni_958qm5w8srut-fill" data-item-order="0" transform="translate(134, 26)"><g id="tx_finetuni_958qm5w8srut-fill" stroke="none" fill="#484848"><g><text style="font: bold 25px &quot;Shantell Sans&quot;, cursive; white-space: pre;" font-weight="bold" font-size="25px" font-family="'Shantell Sans', cursive"><tspan x="14.67" y="45" dominant-baseline="ideographic">Fine-Tuning a Large Language Model</tspan></text></g></g></g><g id="g-root-down_18gb2kdw8ssn8-fill" data-item-order="0" transform="translate(374, 98)"></g><g id="g-root-tx_prepared_8yzwl9w95gxt-fill" data-item-order="0" transform="translate(446, 110)"><g id="tx_prepared_8yzwl9w95gxt-fill" stroke="none" fill="#484848"><g><text style="font: bold 20px &quot;Shantell Sans&quot;, cursive; white-space: pre;" font-weight="bold" font-size="20px" font-family="'Shantell Sans', cursive"><tspan x="12" y="36" dominant-baseline="ideographic">Prepare Data</tspan></text></g></g></g><g id="g-root-tx_collecta_qq9x31w95eko-fill" data-item-order="0" transform="translate(446.396484375, 145.5155029296875)"><g id="tx_collecta_qq9x31w95eko-fill" stroke="none" fill="#484848"><g><text style="font: 15px &quot;Shantell Sans&quot;, cursive; white-space: pre;" font-size="15px" font-family="'Shantell Sans', cursive"><tspan x="12" y="32.5" dominant-baseline="ideographic">Collect and diversify relevant data</tspan></text></g></g></g><g id="g-root-corr_58erhw8rcp7-fill" data-item-order="0" transform="translate(374, 217.99609375)"></g><g id="g-root-tx_choosest_142zdmlw95f5v-fill" data-item-order="0" transform="translate(446, 230)"><g id="tx_choosest_142zdmlw95f5v-fill" stroke="none" fill="#484848"><g><text style="font: bold 20px &quot;Shantell Sans&quot;, cursive; white-space: pre;" font-weight="bold" font-size="20px" font-family="'Shantell Sans', cursive"><tspan x="12" y="36" dominant-baseline="ideographic">Choose Strategy</tspan></text></g></g></g><g id="g-root-tx_selectfi_1ltmx19w95fyi-fill" data-item-order="0" transform="translate(446.396484375, 265.513671875)"><g id="tx_selectfi_1ltmx19w95fyi-fill" stroke="none" fill="#484848"><g><text style="font: 15px &quot;Shantell Sans&quot;, cursive; white-space: pre;" font-size="15px" font-family="'Shantell Sans', cursive"><tspan x="12" y="32.5" dominant-baseline="ideographic">Select fine-tuning methods</tspan></text></g></g></g><g id="g-root-2_zs5rctw8pxxe-fill" data-item-order="0" transform="translate(374, 337.990234375)"></g><g id="g-root-tx_splitdat_4l1tq5w95fyl-fill" data-item-order="0" transform="translate(446, 350)"><g id="tx_splitdat_4l1tq5w95fyl-fill" stroke="none" fill="#484848"><g><text style="font: bold 20px &quot;Shantell Sans&quot;, cursive; white-space: pre;" font-weight="bold" font-size="20px" font-family="'Shantell Sans', cursive"><tspan x="12" y="36" dominant-baseline="ideographic">Split Data</tspan></text></g></g></g><g id="g-root-tx_divideda_hwic3hw95edo-fill" data-item-order="0" transform="translate(446.396484375, 385.513671875)"><g id="tx_divideda_hwic3hw95edo-fill" stroke="none" fill="#484848"><g><text style="font: 15px &quot;Shantell Sans&quot;, cursive; white-space: pre;" font-size="15px" font-family="'Shantell Sans', cursive"><tspan x="12" y="32.5" dominant-baseline="ideographic">Divide data for evaluation</tspan></text></g></g></g><g id="g-root-opti_magi4dw8pxxl-fill" data-item-order="0" transform="translate(374, 457.984375)"></g><g id="g-root-tx_selectop_18k1tx9w95gjr-fill" data-item-order="0" transform="translate(446, 470)"><g id="tx_selectop_18k1tx9w95gjr-fill" stroke="none" fill="#484848"><g><text style="font: bold 20px &quot;Shantell Sans&quot;, cursive; white-space: pre;" font-weight="bold" font-size="20px" font-family="'Shantell Sans', cursive"><tspan x="12" y="36" dominant-baseline="ideographic">Select Optimizer</tspan></text></g></g></g><g id="g-root-tx_chooseef_1lvicalw95eyu-fill" data-item-order="0" transform="translate(446.396484375, 505.513671875)"><g id="tx_chooseef_1lvicalw95eyu-fill" stroke="none" fill="#484848"><g><text style="font: 15px &quot;Shantell Sans&quot;, cursive; white-space: pre;" font-size="15px" font-family="'Shantell Sans', cursive"><tspan x="12" y="32.5" dominant-baseline="ideographic">Choose efficient learning algorithms</tspan></text></g></g></g><g id="g-root-cube_73qv1w95fr6-fill" data-item-order="0" transform="translate(374, 577.98046875)"></g><g id="g-root-tx_trainmod_4mx8zhw95eyx-fill" data-item-order="0" transform="translate(446, 590)"><g id="tx_trainmod_4mx8zhw95eyx-fill" stroke="none" fill="#484848"><g><text style="font: bold 20px &quot;Shantell Sans&quot;, cursive; white-space: pre;" font-weight="bold" font-size="20px" font-family="'Shantell Sans', cursive"><tspan x="12" y="36" dominant-baseline="ideographic">Train Model</tspan></text></g></g></g><g id="g-root-tx_implemen_v97sn1w95eyw-fill" data-item-order="0" transform="translate(446.396484375, 625.513671875)"><g id="tx_implemen_v97sn1w95eyw-fill" stroke="none" fill="#484848"><g><text style="font: 15px &quot;Shantell Sans&quot;, cursive; white-space: pre;" font-size="15px" font-family="'Shantell Sans', cursive"><tspan x="12" y="32.5" dominant-baseline="ideographic">Implement iterative training process</tspan></text></g></g></g><g id="g-root-5.cu_sy_8xqyf1w95ern-stroke" data-item-order="-183529" transform="translate(110, 566)"><g id="5.cu_sy_8xqyf1w95ern-stroke" fill="none" stroke-linecap="round" stroke-linejoin="round" stroke-miterlimit="4" stroke="#484848" stroke-width="4"><g><path d="M 38.4 16.4C 53.4 12.8 70.1 9.5 82 10C 93.9 10.5 111.1 11.1 125.6 16.4C 130.2 18.1 134.3 20.8 138.5 22.5C 148.6 26.6 155.6 37 154 49.2C 151.8 66.1 141.5 75.1 126.7 81.5C 112.3 87.8 94.1 90.1 82 88.2C 70.8 86.5 54.9 85.7 40.4 82.6C 23.4 78.8 10.9 67.3 10 49.2C 9.4 36.9 16.3 28.2 25.6 22.4C 29.5 20 33.6 17.4 38.4 16.4M 82 82C 57.2 81.2 36.4 75.9 37 68.5C 37.1 67.3 37.6 66.1 38.6 64.9C 43.6 59 61.4 56.5 82 55C 102.6 53.5 120.4 58.9 125.4 64.9C 126.4 66.1 127.1 67.3 127 68.5C 126.5 75.9 106.8 83 82 82M 125.4 64.9C 126.6 65.9 127.3 67.3 127 68.5C 125 75.7 106.8 80.3 82 82C 57.2 83.6 35.4 75.8 37 68.5C 37.3 67.3 37.8 66.2 38.6 64.9C 42.5 58.2 61.3 54.6 82 55C 102.7 55.4 119.5 59.9 125.4 64.9"></path><path d="M 38.3896 16.3626C 52.9728 11.2737 70.1232 10 82 10C 93.8806 10 111.0305 11.2735 125.6124 16.3619C 130.2607 17.984 134.6481 19.9937 138.5206 22.4734C 147.7096 28.3574 154 36.8877 154 49.1641C 154 82.9093 106.6676 88.2344 82 88.2344C 57.4378 88.2344 10 82.7685 10 49.1641C 10 36.8495 16.331 28.3043 25.5679 22.4185C 29.4194 19.9644 33.776 17.9726 38.3896 16.3626ZM 82 82C 57.1472 82 37 75.9558 37 68.5C 37 67.2533 37.5633 66.0461 38.6177 64.9C 43.8692 59.1919 61.3028 55 82 55C 102.6972 55 120.1308 59.1919 125.3823 64.9C 126.4367 66.0461 127 67.2533 127 68.5C 127 75.9558 106.8528 82 82 82ZM 125.3823 64.9C 126.4367 66.0461 127 67.2533 127 68.5C 127 75.9558 106.8528 82 82 82C 57.1472 82 37 75.9558 37 68.5C 37 67.2533 37.5633 66.0461 38.6177 64.9C 43.8692 59.1919 61.3028 55 82 55C 102.6972 55 120.1308 59.1919 125.3823 64.9Z"></path></g></g></g><g id="g-root-4.cu_sy_1unei0tw95g5g-stroke" data-item-order="-183525" transform="translate(86, 482)"><g id="4.cu_sy_1unei0tw95g5g-stroke" fill="none" stroke-linecap="round" stroke-linejoin="round" stroke-miterlimit="4" stroke="#484848" stroke-width="4"><g><path d="M 166 88C 166.2 86.3 165 85 163.8 83.2C 158.3 74.5 133.6 71 106 70C 78.4 69 55.4 75.9 48.2 83.2C 46.7 84.7 46 86.3 46 88C 46 92.8 52.1 97.5 62.4 100.4C 77.1 95.6 94.2 93.1 106 94C 117.8 94.9 135 95.3 149.6 100.4C 159.4 96.1 165.7 92.8 166 88M 163.8 83.2C 164.7 85.1 165.6 86.4 166 88C 167.3 92.6 159.1 95.6 149.6 100.4C 154.1 102.4 159.1 103.4 162.5 106.5C 183.7 98.1 200.6 86.1 202 62.2C 203.1 43.2 190.7 30.9 175.1 23.1C 169.4 20.2 162.8 18.8 156.5 16.1C 139.8 8.8 119.8 9.6 106 10C 92.2 10.4 72.6 9.9 55.5 16.1C 49.1 18.4 43 20.9 37 23C 20.5 28.9 10.9 43.2 10 62.2C 8.8 86 27.6 100.1 49.6 106.4C 53.5 104.1 57.8 102 62.4 100.4C 52.2 97.1 46.2 92.8 46 88C 45.9 86.3 47 85 48.2 83.2C 53.7 74.5 78.4 70.6 106 70C 133.6 69.4 157.4 75.1 163.8 83.2"></path><path d="M 166 88C 166 86.3377 165.2489 84.7281 163.8431 83.2C 156.8411 75.5892 133.5962 70 106 70C 78.4038 70 55.1589 75.5892 48.1569 83.2C 46.7511 84.7281 46 86.3377 46 88C 46 92.7873 52.2296 97.1381 62.3896 100.3626C 76.9728 95.2737 94.1232 94 106 94C 117.8806 94 135.0305 95.2735 149.6124 100.3619C 159.7712 97.1375 166 92.787 166 88ZM 163.8431 83.2C 165.2489 84.7281 166 86.3377 166 88C 166 92.787 159.7712 97.1375 149.6124 100.3619C 154.2607 101.984 158.6481 103.9937 162.5206 106.4734C 184.1675 99.3457 202 86.1359 202 62.2188C 202 43.1964 190.6728 30.9199 175.1161 23.0874C 169.3823 20.2005 163.0739 17.9173 156.5464 16.1227C 138.975 11.2916 119.8155 10 106 10C 92.1888 10 73.0291 11.2918 55.4565 16.1234C 48.9764 17.9051 42.7122 20.1682 37.0116 23.0253C 21.3896 30.855 10 43.1462 10 62.2188C 10 86.0481 27.8903 99.2655 49.5679 106.4185C 53.4194 103.9644 57.776 101.9726 62.3896 100.3626C 52.2296 97.1381 46 92.7873 46 88C 46 86.3377 46.7511 84.7281 48.1569 83.2C 55.1589 75.5892 78.4038 70 106 70C 133.5962 70 156.8411 75.5892 163.8431 83.2Z"></path></g></g></g><g id="g-root-3.cu_sy_1lrrhrxw95gy5-stroke" data-item-order="-183521" transform="translate(62, 374)"><g id="3.cu_sy_1lrrhrxw95gy5-stroke" fill="none" stroke-linecap="round" stroke-linejoin="round" stroke-miterlimit="4" stroke="#484848" stroke-width="4"><g><path d="M 205 107.5C 205 105.4 203.7 103.7 202.3 101.5C 195.4 90.6 164.5 83.4 130 85C 113.3 85.8 97.4 85.3 85.3 89.4C 72.5 93.8 62.9 97.4 57.7 101.5C 55.7 103.1 55.2 105.4 55 107.5C 54.4 114.1 64.2 121.2 79.5 124.1C 97 119 116.2 118.4 130 118C 143.8 117.6 162.9 119.5 180.5 124.1C 195.7 120.7 204.3 114 205 107.5M 202.3 101.5C 204.4 103 204.4 105.5 205 107.5C 206.7 113.8 195.9 121.8 180.5 124.1C 187.2 125.1 193.4 128.3 199.1 131.1C 213.6 128.2 225.2 119.1 235.4 110.8C 245.3 102.8 251 90.2 250 75.3C 248.3 49.4 233.2 33.5 211.1 23.9C 203.4 20.5 195.1 18.2 186.6 16C 166.7 10.8 145.5 11.3 130 10C 114.5 8.7 93.3 10.8 73.4 16C 65 18.2 56.5 20 49.1 23.8C 27.5 34.8 10.8 49.3 10 75.3C 9 105.6 32.8 123.8 61 131C 66.3 127.4 72.8 125 79.5 124.1C 64.2 121.1 55.5 114.1 55 107.5C 54.8 105.4 55.6 103.1 57.7 101.5C 62.9 97.6 71.7 93.1 84.2 89.7C 96.8 86.3 112.8 85.2 130 85C 164.5 84.6 194.7 91.1 202.3 101.5"></path><path d="M 205 107.5C 205 105.4222 204.0612 103.4102 202.3038 101.5C 193.5514 91.9864 164.4953 85 130 85C 95.5047 85 66.4486 91.9864 57.6962 101.5C 55.9388 103.4102 55 105.4222 55 107.5C 55 114.0847 64.4286 120.0088 79.4565 124.1234C 97.0291 119.2918 116.1888 118 130 118C 143.8155 118 162.975 119.2916 180.5464 124.1227C 195.5726 120.008 205 114.0843 205 107.5ZM 202.3038 101.5C 204.0612 103.4102 205 105.4222 205 107.5C 205 114.0843 195.5726 120.008 180.5464 124.1227C 187.0739 125.9173 193.3823 128.2005 199.1161 131.0874C 226.8613 122.2997 250 105.7333 250 75.2734C 250 49.3826 233.2127 33.4891 211.0921 23.8787C 203.4167 20.5441 195.0993 17.966 186.6182 15.9891C 166.5482 11.311 145.5619 10 130 10C 114.4428 10 93.4567 11.3112 73.3854 15.99C 64.9643 17.953 56.7042 20.5088 49.0738 23.8093C 26.8718 33.4126 10 49.3203 10 75.2734C 10 105.6269 33.2219 122.2058 61.0116 131.0253C 66.7122 128.1682 72.9764 125.9051 79.4565 124.1234C 64.4286 120.0088 55 114.0847 55 107.5C 55 105.4222 55.9388 103.4102 57.6962 101.5C 66.4486 91.9864 95.5047 85 130 85C 164.4953 85 193.5514 91.9864 202.3038 101.5Z"></path></g></g></g><g id="g-root-2.cu_sy_18gxghpw95fda-stroke" data-item-order="-183517" transform="translate(38, 242)"><g id="2.cu_sy_18gxghpw95fda-stroke" fill="none" stroke-linecap="round" stroke-linejoin="round" stroke-miterlimit="4" stroke="#484848" stroke-width="4"><g><path d="M 244 127C 243.8 124.5 242.5 122.4 240.8 119.8C 232 107 195.4 100.4 154 100C 135.2 99.8 117.6 101.3 103.3 104.7C 86.1 108.7 72.9 113.5 67.2 119.8C 65.1 122.1 64.3 124.5 64 127C 63 135.4 76.9 143.4 97.4 148C 116.9 141.4 138.5 141.1 154 142C 169.5 142.9 190.4 144.1 210.6 148C 230.9 142.7 242.9 135.4 244 127M 240.8 119.8C 242.2 122.6 244.5 124.5 244 127C 242.5 135.3 230.9 142.7 210.6 148C 218.5 151.7 227.3 152.9 235.1 155.9C 251.4 152.8 265.3 143.8 276.8 134.5C 290.1 123.7 298.5 108.3 298 88.3C 297.3 61.4 281.9 45.2 261.6 31.7C 254.6 27 246.3 23.9 237.7 21.5C 224.5 17.9 210.6 15.1 197.2 12.8C 181.6 10 166.2 8.7 154 10C 143.1 11.2 129.6 9.4 115.8 12.1C 101 15.1 84.3 14.9 70.3 21.5C 62.3 25.3 53.8 27.4 46.6 31.6C 36.2 37.7 26.2 44.2 20.6 53.8C 14.8 63.8 11.7 74.7 10 88.3C 5.5 125.2 38.6 146.6 73.1 155.8C 80.8 152.8 88.8 148.9 97.4 148C 77 143.2 63.1 135.4 64 127C 64.3 124.5 65.7 122.5 67.2 119.8C 71 113.1 83.2 107.7 98.3 105.8C 114 103.8 133.1 98.4 154 100C 195.3 103.1 230.4 108.2 240.8 119.8"></path><path d="M 244 127C 244 124.5066 242.8734 122.0922 240.7646 119.8C 230.2616 108.3837 195.3944 100 154 100C 112.6056 100 77.7383 108.3837 67.2354 119.8C 65.1266 122.0922 64 124.5066 64 127C 64 135.4761 77.0191 143.0399 97.3854 147.99C 117.4567 143.3112 138.4428 142 154 142C 169.5619 142 190.5482 143.311 210.6182 147.9891C 230.9824 143.039 244 135.4756 244 127ZM 240.7646 119.8C 242.8734 122.0922 244 124.5066 244 127C 244 135.4756 230.9824 143.039 210.6182 147.9891C 219.0993 149.966 227.4167 152.5441 235.0921 155.8787C 269.2002 145.4871 298 125.5539 298 88.3281C 298 61.4308 282.9019 43.525 261.6239 31.7186C 254.2589 27.632 246.1534 24.2762 237.6775 21.5312C 209.3155 12.346 176.8043 10 154 10C 131.2027 10 98.6905 12.3464 70.3262 21.5326C 61.9157 24.2565 53.87 27.5817 46.5503 31.6254C 25.1809 43.4308 10 61.3601 10 88.3281C 10 125.4274 38.9089 145.3788 73.0738 155.8093C 80.7042 152.5088 88.9643 149.953 97.3854 147.99C 77.0191 143.0399 64 135.4761 64 127C 64 124.5066 65.1266 122.0922 67.2354 119.8C 77.7383 108.3837 112.6056 100 154 100C 195.3944 100 230.2616 108.3837 240.7646 119.8Z"></path></g></g></g><g id="g-root-1.cu_sy_1413yd9w95g5j-stroke" data-item-order="-183513" transform="translate(14, 98)"><g id="1.cu_sy_1413yd9w95g5j-stroke" fill="none" stroke-linecap="round" stroke-linejoin="round" stroke-miterlimit="4" stroke="#484848" stroke-width="4"><g><path d="M 283 146.5C 283.6 143.6 282.3 140.1 279.2 138.1C 274.2 134.8 267.4 130.6 258.1 126.1C 248.1 121.3 234 120.8 219 117.5C 206.6 114.7 192.5 115.8 178 115C 152.5 113.7 129.3 119.1 110.8 122.3C 94.4 125.1 83 132.3 76.8 138.1C 74.1 140.6 72.1 143.7 73 146.5C 75.2 153.3 80.6 161.3 94.3 165.5C 110.1 161.4 126.7 158.3 142.3 155.9C 155.2 153.8 167.7 153.6 178 154C 190.5 154.5 205.9 155.7 222 156.9C 235.3 157.8 249.1 160.7 261.7 165.5C 274.7 159.4 283.1 153.6 283 146.5M 178 10C 159.7 10.7 136.3 12.8 112.4 15.6C 84.5 18.8 56.1 28.7 37.3 45.5C 21.4 59.6 8.8 76.9 10 101.4C 10.9 119.2 14.5 134.7 25.2 145.3C 37.6 157.6 52.9 167.4 70.6 175.6C 78.2 172.3 85.5 166.3 94.3 165.5C 81.5 159 73.2 153.6 73 146.5C 72.9 143.6 73.9 140.4 76.8 138.1C 81.9 134 90 130.6 100.2 125.3C 109.8 120.4 123.1 119.5 137.2 117.5C 149.8 115.7 163.6 114.6 178 115C 200.4 115.6 221.1 117.5 238.2 120.7C 258 124.4 272.5 131.1 279.2 138.1C 281.7 140.7 282.8 143.6 283 146.5C 283.5 153.6 275.3 161 261.7 165.5C 269.5 169.7 278.5 171.1 285.6 175.7C 319.5 162.8 344.8 140 346 101.4C 346.7 80.4 337 65.1 325.4 51.4C 314.1 38 296.3 29.1 277.2 24C 258.7 19 239.3 12.9 220.6 12.3C 205 11.7 190.3 10.5 178 10"></path><path d="M 283 146.5C 283 143.5911 281.6856 140.7742 279.2254 138.1C 266.9719 124.781 226.2934 115 178 115C 129.7066 115 89.0281 124.781 76.7746 138.1C 74.3144 140.7742 73 143.5911 73 146.5C 73 153.651 80.9428 160.2454 94.3262 165.5326C 122.6905 156.3464 155.2027 154 178 154C 200.8043 154 233.3155 156.346 261.6775 165.5312C 275.0586 160.2442 283 153.6503 283 146.5ZM 178 10C 120.4933 10 10 22.7974 10 101.3828C 10 139.8507 36.6409 162.5159 70.5503 175.6254C 77.87 171.5817 85.9157 168.2565 94.3262 165.5326C 80.9428 160.2454 73 153.651 73 146.5C 73 143.5911 74.3144 140.7742 76.7746 138.1C 89.0281 124.781 129.7066 115 178 115C 226.2934 115 266.9719 124.781 279.2254 138.1C 281.6856 140.7742 283 143.5911 283 146.5C 283 153.6503 275.0586 160.2442 261.6775 165.5312C 270.1534 168.2762 278.2589 171.632 285.6239 175.7186C 319.462 162.6428 346 139.9801 346 101.3828C 346 22.7961 235.5267 10 178 10Z"></path></g></g></g><g id="g-root-tx_finetuni_958qm5w8srut-stroke" data-item-order="0" transform="translate(134, 26)"></g><g id="g-root-down_18gb2kdw8ssn8-stroke" data-item-order="0" transform="translate(374, 98)"><g id="down_18gb2kdw8ssn8-stroke" fill="none" stroke-linecap="round" stroke-linejoin="round" stroke-miterlimit="4" stroke="#484848" stroke-width="2"><g><path d="M 32.597744 33.997604C 32.397762 35.397465 31.397863 36.997303 29.998003 36.797325C 24.598543 35.797424 19.199081 36.397366 13.599641 36.797325C 12.19978 36.797325 11.199881 35.597443 10.9999 33.997604C 9.80002 27.398262 11.999801 20.398962 10.9999 13.799621C 10.79992 12.19978 12.19978 10.79992 13.599641 10.9999C 17.199282 11.39986 20.798922 10.9999 24.398561 10.9999C 24.998503 10.9999 25.798422 11.199881 26.198383 11.79982C 27.398262 14.19958 29.598043 16.199381 31.797823 17.399261C 32.397762 17.799221 32.597744 18.599142 32.597744 19.399061C 32.397762 24.198582 32.197784 29.198084 32.597744 33.997604M 29.398064 50.195988C 26.398363 50.195988 23.398663 49.996006 20.398962 50.195988C 19.399061 50.195988 18.599142 49.196087 18.39916 48.196186C 18.39916 46.396366 18.799122 44.596542 18.39916 42.796726M 32.597744 29.998003C 30.797922 28.398163 29.798023 25.398462 27.598244 24.198582C 27.198284 23.998602 26.798323 23.598642 26.398363 23.598642C 25.798422 23.798622 25.198483 23.798622 24.998503 24.198582C 23.598642 26.798323 20.998901 28.598143 19.199081 30.797922C 17.999201 29.998003 16.999302 29.198084 15.799421 28.198183C 15.199481 27.598244 13.9996 27.598244 13.399661 28.398163C 12.799721 29.398064 11.79982 29.998003 10.9999 30.797922M 17.799221 17.999201C 18.799122 17.599241 19.399061 18.999102 19.799023 19.999002C 19.999002 20.998901 18.799122 21.998802 17.799221 21.998802C 16.59934 21.998802 15.799421 21.198881 15.799421 19.999002C 15.799421 18.799122 16.59934 17.599241 17.799221 17.999201M 25.398462 54.195587C 26.598343 52.595745 28.198183 51.595844 29.398064 50.195988C 28.398163 48.596146 26.598343 47.596245 25.398462 46.196388M 47.996204 39.797024C 52.795727 38.397163 57.19529 38.397163 56.995308 36.797325C 56.795326 35.197483 52.995708 33.397663 47.996204 33.997604C 42.996704 34.597546 39.197086 35.197483 38.997105 36.797325C 38.997105 38.397163 43.196686 41.196884 47.996204 39.797024M 38.997105 45.396469C 38.397163 42.596745 39.597046 39.597046 38.997105 36.797325M 56.995308 36.797325C 56.39537 39.597046 57.795227 42.796726 56.995308 45.396469M 56.995308 45.396469C 57.395267 48.396168 55.995407 51.395866 56.995308 54.195587C 57.595245 55.595448 52.995708 56.795326 47.996204 56.995308C 42.996704 57.19529 38.797123 55.795425 38.997105 54.195587C 39.197086 51.195889 38.797123 48.396168 38.997105 45.396469M 56.995308 42.396767C 56.795326 43.996605 52.595745 43.596645 47.996204 45.396469C 43.396667 47.196285 38.997105 43.996605 38.997105 42.396767M 56.995308 48.396168C 56.995308 49.996006 52.995708 51.795826 47.996204 51.395866C 42.996704 50.995907 39.597046 49.996006 38.997105 48.396168"></path><path d="M 32.647739 34.015602C 32.646633 35.511364 31.433771 36.723331 29.938009 36.723331L 13.691631 36.723331C 12.196194 36.723331 10.983902 35.51104 10.983902 34.015602L 10.983902 13.70763C 10.983902 12.212192 12.196194 10.9999 13.691631 10.9999L 24.304571 10.9999C 25.023443 11.001718 25.712038 11.289533 26.218382 11.79982L 31.853819 17.433258C 32.36441 17.940216 32.652233 18.629547 32.65374 19.349068ZM 29.482054 50.125996L 20.482954 50.125996C 19.378494 50.125996 18.483152 49.230652 18.483152 48.126194L 18.483152 42.866718M 32.647739 29.954006L 27.676235 24.274574C 27.336214 23.882906 26.843756 23.656963 26.32509 23.654665C 25.806427 23.652367 25.311983 23.873936 24.968506 24.262575L 19.10709 30.861917L 15.857415 28.262177C 15.140998 27.687403 14.106716 27.744287 13.457655 28.394163L 10.983902 30.855917M 17.733229 17.999201C 18.837687 17.999201 19.733028 18.894543 19.733028 19.999002C 19.733028 21.10346 18.837687 21.998802 17.733229 21.998802C 16.628769 21.998802 15.733428 21.10346 15.733428 19.999002C 15.733428 18.894543 16.628769 17.999201 17.733229 17.999201M 25.482454 54.125595L 29.482054 50.125996L 25.482454 46.126392M 48.012203 39.717033C 52.981709 39.717033 57.011307 38.427162 57.011307 36.837322C 57.011307 35.247478 52.981709 33.957607 48.012203 33.957607C 43.042702 33.957607 39.013103 35.247478 39.013103 36.837322C 39.013103 38.427162 43.040699 39.717033 48.012203 39.717033ZM 39.013103 45.476456L 39.013103 36.837322M 57.011307 36.837322L 57.011307 45.476456M 57.011307 45.476456L 57.011307 54.115593C 57.011307 55.715435 52.981709 56.995308 48.012203 56.995308C 43.042702 56.995308 39.013103 55.705437 39.013103 54.115593L 39.013103 45.476456M 57.011307 42.476757C 57.011307 44.076599 52.981709 45.356472 48.012203 45.356472C 43.042702 45.356472 39.013103 44.066597 39.013103 42.476757M 57.011307 48.476158C 57.011307 50.076 52.981709 51.355873 48.012203 51.355873C 43.042702 51.355873 39.013103 50.065998 39.013103 48.476158"></path></g></g></g><g id="g-root-tx_prepared_8yzwl9w95gxt-stroke" data-item-order="0" transform="translate(446, 110)"></g><g id="g-root-tx_collecta_qq9x31w95eko-stroke" data-item-order="0" transform="translate(446.396484375, 145.5155029296875)"></g><g id="g-root-corr_58erhw8rcp7-stroke" data-item-order="0" transform="translate(374, 217.99609375)"><g id="corr_58erhw8rcp7-stroke" fill="none" stroke-linecap="round" stroke-linejoin="round" stroke-miterlimit="4" stroke="#484848" stroke-width="2"><g><path d="M 28.998102 32.997704C 33.197685 30.797922 34.997505 25.398462 38.997105 22.998703M 39.597046 16.399361C 39.397064 16.999302 38.997105 17.399261 38.997105 17.799221C 38.797123 19.599041 39.597046 21.398861 38.997105 22.998703C 40.796925 22.798721 42.396767 22.798721 44.196587 22.998703C 44.796524 22.998703 45.396469 22.798721 45.596443 22.398762C 46.596344 19.999002 49.196087 18.799122 50.995907 16.999302C 49.196087 16.399361 46.996307 16.59934 44.996506 16.999302C 44.396568 14.999501 44.796524 12.999701 44.996506 10.9999C 42.596745 11.999801 40.996906 14.19958 39.597046 16.399361M 28.998102 42.996704C 23.998602 43.796623 19.399061 39.197086 18.999102 33.997604C 18.799122 28.798122 21.798822 23.998602 26.998302 23.198683C 31.997803 22.398762 35.597443 25.798422 38.597145 29.998003M 28.998102 50.995907C 21.798822 51.595844 14.19958 47.196285 12.59974 40.196987C 10.79992 33.197685 10.399961 25.398462 15.799421 20.798922C 21.398861 16.199381 27.798222 14.999501 34.997505 15.999401M 32.997704 44.996506C 35.197483 51.195889 38.597145 55.195488 44.996506 56.995308C 51.395866 58.795128 56.195389 51.595844 56.995308 44.996506C 57.795227 38.397163 51.595844 33.197685 44.996506 32.997704C 38.397163 32.797722 34.397564 38.597145 32.997704 44.996506M 50.395969 41.596844C 48.796127 44.396568 45.596443 46.196388 44.596542 49.196087C 44.396568 49.596046 43.796623 49.596046 43.396667 49.796024C 42.996704 49.996006 42.596745 49.796024 42.196785 49.396069C 41.396866 48.396168 39.797024 47.796227 39.197086 46.396366"></path><path d="M 28.998102 32.997704L 38.997105 22.998703M 39.583046 16.413361C 39.207985 16.788307 38.997219 17.296883 38.997105 17.827219L 38.997105 22.998703L 44.168591 22.998703C 44.698925 22.998589 45.207497 22.787823 45.582447 22.41276L 50.995907 16.999302L 44.996506 16.999302L 44.996506 10.9999ZM 28.998102 42.996704C 23.868689 42.995365 19.572243 39.112843 19.053061 34.009773C 18.533878 28.906698 21.960375 24.238447 26.984421 23.204105C 32.008465 22.169762 37.000328 25.104855 38.53915 29.998003M 28.998102 50.995907C 21.846004 50.991165 15.375361 46.75211 12.514467 40.197124C 9.653574 33.642139 10.945358 26.015207 15.805223 20.767897C 20.665089 15.520588 28.170748 13.648717 34.92551 15.999401M 32.997704 44.996506C 32.997707 51.623264 38.369751 56.995308 44.996506 56.995308C 51.623264 56.995308 56.995308 51.623264 56.995308 44.996506C 56.995308 38.369751 51.623264 32.997707 44.996506 32.997707C 38.369751 32.997707 32.997707 38.369751 32.997707 44.996506ZM 50.343971 41.508854L 44.53455 49.254082C 44.273094 49.601391 43.87413 49.818573 43.440517 49.849628C 43.006901 49.88068 42.581059 49.722572 42.272778 49.416061L 39.273075 46.416363"></path></g></g></g><g id="g-root-tx_choosest_142zdmlw95f5v-stroke" data-item-order="0" transform="translate(446, 230)"></g><g id="g-root-tx_selectfi_1ltmx19w95fyi-stroke" data-item-order="0" transform="translate(446.396484375, 265.513671875)"></g><g id="g-root-2_zs5rctw8pxxe-stroke" data-item-order="0" transform="translate(374, 337.990234375)"><g id="2_zs5rctw8pxxe-stroke" fill="none" stroke-linecap="round" stroke-linejoin="round" stroke-miterlimit="4" stroke="#484848" stroke-width="2"><g><path d="M 19.599041 30.997904C 23.798622 31.397863 27.398262 29.598043 27.598244 27.798222C 27.598244 25.998402 23.598642 25.998402 19.599041 24.598543C 15.399461 23.198683 11.999801 26.198383 11.59984 27.798222C 10.9999 29.398064 15.399461 29.598043 19.599041 30.997904M 11.59984 27.798222C 10.9999 31.997803 11.79982 36.397366 11.59984 40.596947C 11.39986 42.396767 15.199481 42.796726 19.599041 43.796623C 23.798622 44.796524 27.198284 42.396767 27.598244 40.596947C 28.398163 36.397366 27.798222 31.997803 27.598244 27.798222M 51.195889 16.799322C 53.995605 16.999302 56.595345 15.399461 56.39537 13.9996C 55.995407 12.39976 53.995605 11.59984 51.195889 11.199881C 48.396168 10.79992 45.796425 12.39976 45.996407 13.9996C 46.396366 15.399461 48.396168 16.999302 51.195889 16.799322M 45.996407 13.9996C 46.796326 16.399361 45.996407 18.799122 45.996407 21.198881C 46.196388 22.798721 48.396168 24.198582 51.195889 23.998602C 53.995605 23.798622 56.195389 22.798721 56.39537 21.198881C 56.39537 18.799122 56.39537 16.399361 56.39537 13.9996M 51.195889 33.397663C 53.995605 33.797623 56.195389 32.197784 56.39537 30.597944C 56.39537 28.998102 53.995605 28.398163 51.195889 27.798222C 48.396168 27.198284 46.396366 29.198084 45.996407 30.597944C 45.796425 31.997803 48.396168 33.797623 51.195889 33.397663M 45.996407 30.597944C 45.996407 32.997704 46.196388 35.397465 45.996407 37.797222C 45.996407 39.397064 48.596146 39.997005 51.195889 40.596947C 53.995605 41.196884 55.995407 39.397064 56.39537 37.797222C 56.795326 35.397465 56.995308 32.997704 56.39537 30.597944M 51.195889 49.596046C 53.795628 50.595943 56.995308 48.196186 56.39537 46.796326C 55.795425 45.396469 53.995605 43.196686 51.195889 43.996605C 48.396168 44.796524 45.796425 45.196487 45.996407 46.796326C 46.196388 48.196186 48.396168 49.596046 51.195889 49.596046M 45.996407 46.796326C 45.996407 49.196087 46.396366 51.595844 45.996407 53.995605C 45.996407 55.595448 48.396168 56.995308 51.195889 56.795326C 53.995605 56.595345 55.995407 55.39547 56.39537 53.995605C 56.995308 51.795826 55.995407 49.196087 56.39537 46.796326M 41.196884 17.399261C 39.997005 16.999302 38.597145 17.599241 37.197285 17.399261C 39.397064 28.198183 33.597645 40.196987 37.197285 50.595943C 38.597145 50.795925 39.997005 50.595943 41.196884 50.595943M 41.196884 33.997604C 38.197186 34.197586 35.197483 33.997604 32.197784 33.997604M 11.59984 34.197586C 11.59984 35.997406 14.999501 36.997303 19.599041 37.397263C 23.998602 37.597244 27.798222 35.797424 27.598244 34.197586"></path><path d="M 19.499052 30.998104C 23.916889 30.998104 27.498253 29.565607 27.498253 27.798462C 27.498253 26.03134 23.916889 24.598782 19.499052 24.598782C 15.081213 24.598782 11.49985 26.03134 11.49985 27.798462C 11.49985 29.565607 15.081213 30.998104 19.499052 30.998104ZM 11.49985 27.798162L 11.49985 40.596947C 11.49985 42.396767 15.099491 43.796623 19.499052 43.796623C 23.898611 43.796623 27.498253 42.396767 27.498253 40.596947L 27.498253 27.798162M 51.198689 16.745926C 54.026207 16.745926 56.318176 15.504391 56.318176 13.972883C 56.318176 12.441357 54.026207 11.199817 51.198689 11.199817C 48.371368 11.199817 46.079201 12.441357 46.079201 13.972883C 46.079201 15.504391 48.371368 16.745926 51.198689 16.745926ZM 46.079201 13.972983L 46.079201 21.225578C 46.079201 22.718771 48.425762 23.998642 51.198689 23.998642C 53.971809 23.998642 56.318176 22.718771 56.318176 21.225578L 56.318176 13.972983M 51.198689 33.357868C 54.026207 33.357868 56.318176 32.116192 56.318176 30.584743C 56.318176 29.053238 54.026207 27.811703 51.198689 27.811703C 48.371368 27.811703 46.079201 29.053238 46.079201 30.584743C 46.079201 32.116192 48.371368 33.357868 51.198689 33.357868ZM 46.079201 30.584944L 46.079201 37.837421C 46.079201 39.330669 48.425762 40.610542 51.198689 40.610542C 53.971809 40.610542 56.318176 39.330669 56.318176 37.837421L 56.318176 30.584944M 51.198689 49.542652C 54.026207 49.542652 56.318176 48.301174 56.318176 46.769531C 56.318176 45.238083 54.026207 43.996605 51.198689 43.996605C 48.371368 43.996605 46.079201 45.238083 46.079201 46.769531C 46.079201 48.301174 48.371368 49.542652 51.198689 49.542652ZM 46.079201 46.76973L 46.079201 54.022404C 46.079201 55.515457 48.425762 56.795326 51.198689 56.795326C 53.971809 56.795326 56.318176 55.515457 56.318176 54.022404L 56.318176 46.76973M 41.288475 17.399261L 37.288876 17.399261L 37.288876 50.595943L 41.288475 50.595943M 41.288475 33.997604L 32.289375 33.997604M 11.49985 34.259777C 11.49985 35.95121 14.958964 37.334873 19.499092 37.334873C 24.039198 37.334873 27.498312 35.95121 27.498312 34.259777"></path></g></g></g><g id="g-root-tx_splitdat_4l1tq5w95fyl-stroke" data-item-order="0" transform="translate(446, 350)"></g><g id="g-root-tx_divideda_hwic3hw95edo-stroke" data-item-order="0" transform="translate(446.396484375, 385.513671875)"></g><g id="g-root-opti_magi4dw8pxxl-stroke" data-item-order="0" transform="translate(374, 457.984375)"><g id="opti_magi4dw8pxxl-stroke" fill="none" stroke-linecap="round" stroke-linejoin="round" stroke-miterlimit="4" stroke="#484848" stroke-width="2"><g><path d="M 33.997604 28.398163C 28.398163 29.598043 22.398762 29.198084 16.59934 28.398163C 13.599641 27.998203 10.9999 30.797922 10.9999 33.997604C 10.9999 37.197285 13.599641 39.797024 16.59934 39.597046C 20.598942 39.597046 24.598543 40.796925 28.398163 39.597046C 26.998302 43.196686 28.998102 47.596245 28.398163 51.395866C 27.798222 54.395569 30.997904 55.995407 33.997604 56.995308C 36.997303 57.995209 40.596947 54.195587 39.597046 51.395866C 37.597244 45.996407 40.596947 39.797024 39.597046 33.997604C 38.997105 30.997904 37.197285 28.598143 33.997604 28.398163M 51.395866 10.9999C 45.596443 11.59984 39.797024 11.199881 33.997604 10.9999C 30.797922 10.9999 27.798222 13.599641 28.398163 16.59934C 28.798122 19.599041 30.997904 22.798721 33.997604 22.198782C 37.797222 21.598843 41.796825 22.598742 45.796425 22.198782C 44.796524 25.998402 45.996407 29.998003 45.796425 33.997604C 45.596443 36.997303 48.396168 40.396965 51.395866 39.597046C 54.395569 38.797123 57.395267 36.997303 56.995308 33.997604C 56.195389 28.198183 56.595345 22.398762 56.995308 16.59934C 57.19529 13.599641 54.195587 9.80002 51.395866 10.9999M 10.9999 33.997604C 10.9999 37.197285 13.599641 39.797024 16.59934 39.597046C 19.799023 39.397064 22.198782 37.197285 22.198782 33.997604C 22.198782 30.797922 19.599041 27.798222 16.59934 28.398163C 13.599641 28.998102 11.79982 30.997904 10.9999 33.997604"></path><path d="M 33.997604 28.378164L 16.619339 28.378164C 13.515862 28.378241 11.000037 30.894127 11.000037 33.997604C 11.000037 37.101082 13.515862 39.616966 16.619339 39.617043L 28.378164 39.617043L 28.378164 51.37587C 28.378241 54.479347 30.894127 56.995171 33.997604 56.995171C 37.101082 56.995171 39.616966 54.479347 39.617043 51.375866L 39.617043 33.997604C 39.617043 30.894073 37.101135 28.378164 33.997604 28.378164ZM 51.37587 10.9999L 33.997604 10.9999C 30.894127 10.999976 28.378302 13.515862 28.378302 16.619339C 28.378302 19.722816 30.894127 22.238703 33.997604 22.238777L 45.756428 22.238777L 45.756428 33.997604C 45.756351 37.101189 48.272282 39.61718 51.375866 39.61718C 54.479454 39.61718 56.995384 37.101189 56.995308 33.997604L 56.995308 16.619339C 56.995308 13.515808 54.479401 10.9999 51.375866 10.9999ZM 10.9999 33.997604C 10.999825 37.101189 13.515755 39.61718 16.619339 39.61718C 19.722923 39.61718 22.238853 37.101189 22.238777 33.997604C 22.238853 30.894018 19.722923 28.378027 16.619339 28.378027C 13.515755 28.378027 10.999825 30.894018 10.9999 33.997604"></path></g></g></g><g id="g-root-tx_selectop_18k1tx9w95gjr-stroke" data-item-order="0" transform="translate(446, 470)"></g><g id="g-root-tx_chooseef_1lvicalw95eyu-stroke" data-item-order="0" transform="translate(446.396484375, 505.513671875)"></g><g id="g-root-cube_73qv1w95fr6-stroke" data-item-order="0" transform="translate(374, 577.98046875)"><g id="cube_73qv1w95fr6-stroke" fill="none" stroke-linecap="round" stroke-linejoin="round" stroke-miterlimit="4" stroke="#484848" stroke-width="2"><g><path d="M 25.998394 33.997589C 26.998293 33.797607 27.998192 33.19767 27.998192 31.997791C 28.398151 27.198273 29.598032 21.998795 27.998192 17.399258C 27.798212 16.799316 27.798212 16.399357 27.398252 15.999397C 26.198374 14.199578 24.798513 12.799719 22.998693 11.599839C 22.598736 11.19988 22.198774 10.9999 21.598835 10.9999C 18.799116 10.79992 15.599438 11.999799 12.999699 10.9999C 11.999799 10.599939 10.599939 11.999799 10.9999 12.999699C 12.999699 18.999096 9.80002 25.798414 10.9999 31.997791C 11.19988 32.997688 11.999799 34.197571 12.999699 33.997589C 17.199276 33.19767 21.598835 33.397648 25.998394 33.997589M 35.997387 42.996685C 40.596928 42.196766 45.396446 42.996685 49.995983 42.996685C 51.595821 47.396244 50.395943 52.395744 49.995983 56.995281C 45.396446 56.595318 40.596928 55.795399 35.997387 56.995281C 36.797306 52.395744 37.197269 47.596222 35.997387 42.996685M 49.995983 56.995281C 51.395844 53.995583 54.395542 51.995781 56.995281 49.995983C 57.395241 45.396446 55.595417 40.396946 56.995281 35.997387C 52.395744 35.597427 47.596222 35.797409 42.996685 35.997387C 40.196968 37.597229 38.397148 40.596928 35.997387 42.996685M 49.995983 42.996685C 51.995781 40.396946 54.59552 38.397148 56.995281 35.997387M 51.995781 23.998594C 48.996082 18.999096 43.196667 14.799518 37.597229 16.199377C 36.597328 16.399357 35.597427 15.999397 34.59753 16.199377M 39.197067 11.599839C 37.397247 12.599739 35.597427 14.199578 34.59753 16.199377C 36.197369 17.799217 37.597229 19.399055 39.197067 20.798916M 11.999799 41.996788C 14.799518 47.196266 20.598936 49.59602 26.398352 49.796001C 27.398252 49.796001 28.398151 49.796001 29.39805 49.796001M 24.798513 54.395542C 26.798311 53.595619 27.798212 51.195862 29.39805 49.796001C 27.998192 48.196163 25.998394 46.996284 24.798513 45.196465"></path><path d="M 25.998394 33.997589C 27.102852 33.997589 27.998192 33.102249 27.998192 31.997791L 27.998192 17.327265C 27.998079 16.796928 27.787312 16.288353 27.412251 15.913406L 23.084686 11.58584C 22.709738 11.210779 22.201164 11.000012 21.670828 10.9999L 12.999699 10.9999C 11.89524 10.9999 10.9999 11.89524 10.9999 12.999699L 10.9999 31.997791C 10.9999 33.102249 11.89524 33.997589 12.999699 33.997589ZM 35.997387 42.996685L 49.995983 42.996685L 49.995983 56.995281L 35.997387 56.995281ZM 49.995983 56.995281L 56.995281 49.995983L 56.995281 35.997387L 42.996685 35.997387L 35.997387 42.996685M 49.995983 42.996685L 56.995281 35.997387M 51.995781 23.998594C 48.857136 19.131876 43.460255 16.193874 37.66922 16.199377L 34.571533 16.199377M 39.219067 11.543845L 34.571533 16.193378L 39.219067 20.840912M 11.999799 41.996788C 15.138449 46.863506 20.53533 49.801506 26.326361 49.796005L 29.424049 49.796001M 24.776516 54.451538L 29.424049 49.802002L 24.776516 45.154469"></path></g></g></g><g id="g-root-tx_trainmod_4mx8zhw95eyx-stroke" data-item-order="0" transform="translate(446, 590)"></g><g id="g-root-tx_implemen_v97sn1w95eyw-stroke" data-item-order="0" transform="translate(446.396484375, 625.513671875)"></g></g></g></svg>