<?xml version="1.0" encoding="utf-8" standalone="yes"?>
<!DOCTYPE svg PUBLIC "-//W3C//DTD SVG 1.1//EN" "http://www.w3.org/Graphics/SVG/1.1/DTD/svg11.dtd">
<svg width="696" height="456" viewBox="0 0 696 456" style="fill:none;stroke:none;fill-rule:evenodd;clip-rule:evenodd;stroke-linecap:round;stroke-linejoin:round;stroke-miterlimit:1.5;" version="1.1" xmlns="http://www.w3.org/2000/svg" xmlns:xlink="http://www.w3.org/1999/xlink"><style class="text-font-style fontImports" data-font-family="Roboto">@import url('https://fonts.googleapis.com/css2?family=Roboto:wght@400;700&amp;display=block');</style><g id="items" style="isolation: isolate"><g id="blend" style="mix-blend-mode: normal"><g id="g-root-sy_-1_cu_hu0ddunda0w3-fill" data-item-order="-70842" transform="translate(278, 110)"></g><g id="g-root-sy_3_line_8yzu82nd9yj0-fill" data-item-order="-70835" transform="translate(194.109375, 278)"></g><g id="g-root-sy_2_line_4j6c3mnd9zb9-fill" data-item-order="-70829" transform="translate(194, 254)"></g><g id="g-root-sy_1_line_4j6c3mnd9zba-fill" data-item-order="-70823" transform="translate(194, 170)"></g><g id="g-root-tx_textdata_1lt0dkyndcs92-fill" data-item-order="0" transform="translate(26, 158)"><g id="tx_textdata_1lt0dkyndcs92-fill" stroke="none" fill="#484848"><g><text style="font: 20px &quot;Roboto&quot;, sans-serif; white-space: pre;" font-size="20px" font-family="'Roboto', sans-serif"><tspan x="19.55" y="34" dominant-baseline="ideographic">Text Data</tspan></text></g></g></g><g id="g-root-ic_sear_hz062qndbdoq-fill" data-item-order="0" transform="translate(134, 146)"></g><g id="g-root-tx_imagedat_4ijv0indct8t-fill" data-item-order="0" transform="translate(14, 242)"><g id="tx_imagedat_4ijv0indct8t-fill" stroke="none" fill="#484848"><g><text style="font: 20px &quot;Roboto&quot;, sans-serif; white-space: pre;" font-size="20px" font-family="'Roboto', sans-serif"><tspan x="13.9" y="34" dominant-baseline="ideographic">Image Data</tspan></text></g></g></g><g id="g-root-ic_came_1q8tvpendbe2x-fill" data-item-order="0" transform="translate(134, 230)"></g><g id="g-root-ic_idea_1uondtund9zwv-fill" data-item-order="0" transform="translate(458, 230)"></g><g id="g-root-tx_enhanced_1hbbg76ndcu0z-fill" data-item-order="0" transform="translate(518, 230)"><g id="tx_enhanced_1hbbg76ndcu0z-fill" stroke="none" fill="#484848"><g><text style="font: 20px &quot;Roboto&quot;, sans-serif; white-space: pre;" font-size="20px" font-family="'Roboto', sans-serif"><tspan x="12" y="34" dominant-baseline="ideographic">Enhanced </tspan><tspan x="12" y="58" dominant-baseline="ideographic">Understanding</tspan></text></g></g></g><g id="g-root-tx_audiodat_qp0wjmndcu10-fill" data-item-order="0" transform="translate(14, 326)"><g id="tx_audiodat_qp0wjmndcu10-fill" stroke="none" fill="#484848"><g><text style="font: 20px &quot;Roboto&quot;, sans-serif; white-space: pre;" font-size="20px" font-family="'Roboto', sans-serif"><tspan x="18.07" y="34" dominant-baseline="ideographic">Audio Data</tspan></text></g></g></g><g id="g-root-ic_auda_18n64zmnd9zb4-fill" data-item-order="0" transform="translate(134, 314)"></g><g id="g-root-sy_-1_cu_hu0ddunda0w3-stroke" data-item-order="-70842" transform="translate(278, 110)"><g id="sy_-1_cu_hu0ddunda0w3-stroke" fill="none" stroke-linecap="round" stroke-linejoin="round" stroke-miterlimit="4" stroke="#484848" stroke-width="2"><g><path d="M 65.766602 298C 80.754802 298 106.000002 233.529 106.000002 154C 106.000002 74.471 80.754802 10 65.766602 10C 80.775202 10.0075 92.941702 74.6668 92.941702 154C 92.941702 233.3332 80.775202 297.9925 65.766602 298ZM 65.765897 298C 80.774597 297.9925 92.941097 233.3332 92.941097 154C 92.941097 74.6668 80.774597 10.0075 65.765897 10L 51.957397 10C 66.060697 15.1659 77.199297 77.8539 77.199297 154C 77.199297 230.1462 65.382597 292.8341 51.279297 298L 65.765897 298ZM 77.2 154C 77.2 230.1462 65.3833 292.8341 51.28 298L 50.0615 298C 35.0734 298 10 233.529 10 154C 10 74.471 35.0734 10 50.0615 10C 50.6991 10 51.9581 10 51.9581 10C 66.0614 15.1659 77.2 77.8539 77.2 154Z"></path></g></g></g><g id="g-root-sy_3_line_8yzu82nd9yj0-stroke" data-item-order="-70835" transform="translate(194.109375, 278)"><g id="sy_3_line_8yzu82nd9yj0-stroke" fill="none" stroke-linecap="round" stroke-linejoin="round" stroke-miterlimit="4" stroke="#92bd39" stroke-width="2"><g><path d="M 254.08061 10.859878L 129.89061 69.999878L 10.00061 69.999878"></path><path d="M 251.49061 19.299878L 254.49061 10.599878L 245.89061 7.599878" stroke-dasharray="none"></path></g></g></g><g id="g-root-sy_2_line_4j6c3mnd9zb9-stroke" data-item-order="-70829" transform="translate(194, 254)"><g id="sy_2_line_4j6c3mnd9zb9-stroke" fill="none" stroke-linecap="round" stroke-linejoin="round" stroke-miterlimit="4" stroke="#3cc583" stroke-width="2"><g><path d="M 248 10L 130 10L 10 10"></path><path d="M 242 16.5L 248.5 10L 242 3.5" stroke-dasharray="none"></path></g></g></g><g id="g-root-sy_1_line_4j6c3mnd9zba-stroke" data-item-order="-70823" transform="translate(194, 170)"><g id="sy_1_line_4j6c3mnd9zba-stroke" fill="none" stroke-linecap="round" stroke-linejoin="round" stroke-miterlimit="4" stroke="#e0cb15" stroke-width="2"><g><path d="M 254.19 69.14L 130 10L 10 10"></path><path d="M 246 72.4L 254.6 69.4L 251.6 60.7" stroke-dasharray="none"></path></g></g></g><g id="g-root-tx_textdata_1lt0dkyndcs92-stroke" data-item-order="0" transform="translate(26, 158)"></g><g id="g-root-ic_sear_hz062qndbdoq-stroke" data-item-order="0" transform="translate(134, 146)"><g id="ic_sear_hz062qndbdoq-stroke" fill="none" stroke-linecap="round" stroke-linejoin="round" stroke-miterlimit="4" stroke="#e0cb15" stroke-width="2"><g><path d="M 27 47.759998C 22.513447 46.091202 17.784643 45.165707 13 45.02C 11.895431 45.02 11 44.124569 11 43.02L 11 14C 11 12.895431 11.895431 12 13 12C 23.82 12.34 33 15.32 33 18.959999C 33 15.32 42.119999 12.34 53 12C 54.104568 12 55 12.895431 55 14L 55 28.98M 33 18.98L 33 24.98M 29 22.459999C 24.802313 21.038824 20.426722 20.210827 16 20M 29 28.52C 24.810371 27.059311 20.431957 26.210571 16 26M 26 33.5C 22.717789 32.704216 19.371244 32.202232 16 32M 24.66 39.18C 21.805859 38.576668 18.911514 38.182285 16 38M 42 21.02C 44.641495 20.505445 47.3139 20.164715 50 20M 29 40.02C 29.000002 47.199703 34.820297 53.02 42 53.02C 49.179703 53.02 55 47.199703 55 40.02C 55 32.840302 49.179703 27.02 42 27.02C 34.820297 27.02 29.000002 32.840302 29.000002 40.02M 50.700001 49.68L 57 55.98M 37 38L 37 35C 37 34.447716 37.447716 34 38 34L 46 34C 46.552284 34 47 34.447716 47 35L 47 38M 42 34.02L 42 46.02M 39 46.02L 45 46.02"></path></g></g></g><g id="g-root-tx_imagedat_4ijv0indct8t-stroke" data-item-order="0" transform="translate(14, 242)"></g><g id="g-root-ic_came_1q8tvpendbe2x-stroke" data-item-order="0" transform="translate(134, 230)"><g id="ic_came_1q8tvpendbe2x-stroke" fill="none" stroke-linecap="round" stroke-linejoin="round" stroke-miterlimit="4" stroke="#3cc583" stroke-width="2"><g><path d="M 19 26C 19 34.284271 25.715729 41 34 41C 42.284271 41 49 34.284271 49 26C 49 17.715729 42.284271 11.000001 34 11.000001C 25.715729 11.000001 19 17.715729 19 26M 25 26C 25 30.970562 29.029438 35 34 35C 38.970562 35 43 30.970562 43 26C 43 21.029438 38.970562 17 34 17C 29.029438 17 25 21.029438 25 26M 34 21C 36.761425 21 39 23.238577 39 26M 35.200001 46.119999L 35.200001 46.119999C 32.99086 46.119999 31.200001 47.910862 31.200001 50.119999L 31.200001 54.119999M 31.120001 54.279999C 31.119707 55.782421 32.337578 57.00053 33.84 57.00053C 35.342422 57.00053 36.560295 55.782421 36.559998 54.279999C 36.560295 52.777576 35.342422 51.559467 33.84 51.559467C 32.337578 51.559467 31.119707 52.777576 31.119999 54.279999M 21.560001 48.139999C 21.871666 46.951599 22.951477 46.127316 24.18 46.139999C 25.682423 46.139706 26.900532 47.357578 26.900532 48.860001C 26.900532 50.362423 25.682423 51.580292 24.18 51.579998C 25.591927 51.575649 26.772421 52.652359 26.897659 54.058723C 27.022896 55.465092 26.051229 56.733448 24.660753 56.978657C 23.270275 57.223862 21.92337 56.364372 21.559999 55M 46 54.279999C 46.000294 55.782421 44.782421 57.00053 43.279999 57.00053C 41.77758 57.00053 40.559708 55.782421 40.559998 54.279999L 40.559998 48.84C 40.559708 47.337578 41.77758 46.119469 43.279999 46.119469C 44.782421 46.119469 46.000294 47.337578 46 48.84ZM 52 34.34C 55.139999 36.34 57.02 38.779999 57.02 41.5C 57.02 44.220001 54.919998 46.98 51.459999 49M 16.559999 49C 13.1 46.98 11 44.360001 11 41.5C 11 38.639999 12.88 36.299999 16 34.34M 52 44.119999L 51 49L 56 50.119999M 46.5 42.119999C 46.776142 42.119999 47 42.343857 47 42.619999M 46 42.619999C 46 42.343857 46.223858 42.119999 46.5 42.119999M 46.5 43.119999C 46.223858 43.119999 46 42.896141 46 42.619999M 47 42.619999C 47 42.896141 46.776142 43.119999 46.5 43.119999"></path></g></g></g><g id="g-root-ic_idea_1uondtund9zwv-stroke" data-item-order="0" transform="translate(458, 230)"><g id="ic_idea_1uondtund9zwv-stroke" fill="none" stroke-linecap="round" stroke-linejoin="round" stroke-miterlimit="4" stroke="#484848" stroke-width="2"><g><path d="M 12 57C 11.874946 53.780693 13.099022 50.655247 15.377134 48.377136C 17.655245 46.099022 20.780693 44.874947 24 45C 27.219309 44.874947 30.344755 46.099022 32.622868 48.377136C 34.900978 50.655247 36.125053 53.780693 36 57ZM 16 34C 16 38.418278 19.581722 42 24 42C 28.418278 42 32 38.418278 32 34C 32 29.581722 28.418278 26 24 26C 19.581722 26 16 29.581722 16 34M 32 32.68C 30.569401 33.576534 28.90794 34.035347 27.219999 34C 23.398668 34.009598 19.918804 31.801521 18.299999 28.34M 46.439999 37L 43.560001 37M 48 33L 42 33M 45 11L 45 13M 33.599998 23L 36 23M 56 23L 54 23M 35 14L 37 16M 55 14L 53 16M 51 22C 50.905949 18.726038 48.27396 16.094048 44.999996 16C 41.726036 16.094048 39.094048 18.726038 39 22C 39.044998 24.080042 40.185844 25.981453 42 27L 42 28C 42 28.552284 42.447716 29 43 29L 47 29C 47.552284 29 48 28.552284 48 28L 48 27C 49.814156 25.981453 50.955002 24.080042 51 22ZM 24 49L 24 51"></path></g></g></g><g id="g-root-tx_enhanced_1hbbg76ndcu0z-stroke" data-item-order="0" transform="translate(518, 230)"></g><g id="g-root-tx_audiodat_qp0wjmndcu10-stroke" data-item-order="0" transform="translate(14, 326)"></g><g id="g-root-ic_auda_18n64zmnd9zb4-stroke" data-item-order="0" transform="translate(134, 314)"><g id="ic_auda_18n64zmnd9zb4-stroke" fill="none" stroke-linecap="round" stroke-linejoin="round" stroke-miterlimit="4" stroke="#92bd39" stroke-width="2"><g><path d="M 10 10M 19.279999 31.139999L 22 32.440002C 22.679008 32.782131 23.105291 33.479687 23.1 34.239998L 23.1 49.759998C 23.105291 50.520313 22.679008 51.217869 22 51.560001L 19 53M 56.5 37C 56.043636 34.90696 54.740223 33.096661 52.899998 32C 51.90205 22.311611 43.739651 14.946791 34 14.946791C 24.260349 14.946791 16.09795 22.311611 15.1 32C 13.259777 33.096661 11.956363 34.90696 11.5 37C 11.153266 38.643723 10.985621 40.320168 11 42C 10.985621 43.679832 11.153266 45.356277 11.5 47C 12.286732 50.509388 15.403509 53.002808 19 52.999996L 19 34C 19 25.715729 25.715729 19 34 19C 42.284271 19 49 25.715729 49 34L 49 53C 52.596489 53.002808 55.713264 50.509388 56.499996 46.999996C 56.846733 45.356277 57.014378 43.679832 57 42C 57.014378 40.320168 56.846733 38.643723 56.5 37ZM 10 10M 48.720001 31.139999L 46.099998 32.440002C 45.420994 32.782131 44.994709 33.479687 45 34.239998L 45 49.759998C 44.994709 50.520313 45.420994 51.217869 46.099998 51.560001L 49 53M 45 40L 42 46L 40 36L 37 48L 34 31L 31 48L 28 36L 26 46L 23 40"></path></g></g></g></g></g></svg>