<?xml version="1.0" encoding="utf-8" standalone="yes"?>
<!DOCTYPE svg PUBLIC "-//W3C//DTD SVG 1.1//EN" "http://www.w3.org/Graphics/SVG/1.1/DTD/svg11.dtd">
<svg width="816" height="696" viewBox="0 0 816 696" style="fill:none;stroke:none;fill-rule:evenodd;clip-rule:evenodd;stroke-linecap:round;stroke-linejoin:round;stroke-miterlimit:1.5;" version="1.1" xmlns="http://www.w3.org/2000/svg" xmlns:xlink="http://www.w3.org/1999/xlink"><style class="text-font-style fontImports" data-font-family="Shantell Sans">@import url('https://fonts.googleapis.com/css2?family=Shantell+Sans:wght@300..800&amp;display=block');</style><g id="items" style="isolation: isolate"><g id="blend" style="mix-blend-mode: normal"><g id="g-root-0.g-0_fr_zkp47xw8stfl-fill" data-item-order="-469979" transform="translate(62.21098327636719, 302)"></g><g id="g-root-1.g-1_1_fr_de82otw8ssnf-fill" data-item-order="-469968" transform="translate(56, 245)"><g id="1.g-1_1_fr_de82otw8ssnf-fill" stroke="none" fill="#dce9ff"><g><path d="M 85.4 84.7L 71 90.2L 75.5 109.9L 92.5 103.4ZM 75.5 109.9L 135.2 104.2L 130.5 84.6L 71 90.2ZM 130.5 84.6L 41.6 120L 47.1 139.3L 135.2 104.2ZM 47.1 139.3L 154.3 120.7L 149.5 101.2L 41.6 120ZM 149.5 101.2L 30.9 140.6L 35.6 160.1L 154.3 120.7ZM 35.6 160.1L 162.9 140.9L 158 121.5L 30.9 140.6ZM 158 121.5L 40 163.4L 44.1 183.2L 162.9 140.9ZM 44.1 183.2L 164.1 175.9L 160.4 156.1L 40 163.4ZM 160.4 156.1L 52.6 191.2L 57.2 210.7L 164.1 175.9ZM 57.2 210.7L 149.7 196.8L 145.1 177.3L 52.6 191.2ZM 145.1 177.3L 81.1 197.8L 87.2 216.9L 149.7 196.8Z" fill-rule="nonzero"></path></g></g><g id="1.g-1_1_fr_de82otw8ssnf-fill" stroke="none" fill="#dce9ff"><g><path d="M 97.6 30.7L 110.9 16.8L 96.5 3L 83.2 16.8Z" fill-rule="nonzero"></path></g></g></g><g id="g-root-2.g-2_fr_8yekkdw8stfp-fill" data-item-order="-469956" transform="translate(224, 320)"><g id="2.g-2_fr_8yekkdw8stfp-fill" stroke="none" fill="#c8ffe5"><g><path d="M 36.3 44.5L 31.5 54.2L 48.3 65.3L 54.2 53.5ZM 48.3 65.3L 87.1 19.7L 68.9 10.2L 31.5 54.2ZM 68.9 10.2L 42.2 111L 61.1 117.8L 87.1 19.7ZM 61.1 117.8L 109.4 12L 90.7 5L 42.2 111ZM 90.7 5L 54.8 127.1L 73.4 134.9L 109.4 12ZM 73.4 134.9L 135.8 22.5L 117.5 14.3L 54.8 127.1ZM 117.5 14.3L 77.3 131L 95.7 139L 135.8 22.5ZM 95.7 139L 151.3 33.9L 132.8 26.2L 77.3 131ZM 132.8 26.2L 100.6 131.6L 118.9 140.3L 151.3 33.9ZM 118.9 140.3L 170.7 63.5L 153.3 53.7L 100.6 131.6ZM 153.3 53.7L 122.4 120.4L 140.6 128.8L 170.7 63.5Z" fill-rule="nonzero"></path></g></g><g id="2.g-2_fr_8yekkdw8stfp-fill" stroke="none" fill="#c8ffe5"><g><path d="M 101.1 219.7L 110 211.2L 96.2 196.8L 87.3 205.3Z" fill-rule="nonzero"></path></g></g></g><g id="g-root-3.g-3_1_fr_1uool99w8srnr-fill" data-item-order="-469944" transform="translate(392, 245)"><g id="3.g-3_1_fr_1uool99w8srnr-fill" stroke="none" fill="#e9ffb9"><g><path d="M 79 83.1L 72.6 85.7L 76.1 105.9L 86.6 101.6ZM 76.1 105.9L 140.1 108.8L 137.6 88.7L 72.6 85.7ZM 137.6 88.7L 40.6 117.3L 44.8 136.9L 140.1 108.8ZM 44.8 136.9L 151.4 122.6L 146.5 103.1L 40.6 117.3ZM 146.5 103.1L 31.7 146.7L 36.6 166.3L 151.4 122.6ZM 36.6 166.3L 164.2 150.4L 159.9 130.8L 31.7 146.7ZM 159.9 130.8L 36.1 170.5L 40.7 190.1L 164.2 150.4ZM 40.7 190.1L 167.6 170.6L 162.8 151.1L 36.1 170.5ZM 162.8 151.1L 56.7 187.7L 61.5 207.2L 167.6 170.6ZM 61.5 207.2L 154.3 192.9L 149.8 173.4L 56.7 187.7ZM 149.8 173.4L 75 196.6L 81 215.7L 154.3 192.9Z" fill-rule="nonzero"></path></g></g><g id="3.g-3_1_fr_1uool99w8srnr-fill" stroke="none" fill="#e9ffb9"><g><path d="M 100.2 32.5L 110.9 20.6L 96.1 7.2L 85.3 19.1Z" fill-rule="nonzero"></path></g></g></g><g id="g-root-4.g-4_fr_1q8v34tw8ssg1-fill" data-item-order="-469932" transform="translate(560, 320)"><g id="4.g-4_fr_1q8v34tw8ssg1-fill" stroke="none" fill="#d1f4ff"><g><path d="M 35.6 40.8L 33.9 64.3L 53.4 71.2L 55.6 42.3ZM 53.4 71.2L 88.4 20L 70.3 11L 33.9 64.3ZM 70.3 11L 38.4 108.5L 56.9 116.4L 88.4 20ZM 56.9 116.4L 112.1 14.4L 93.4 6.9L 38.4 108.5ZM 93.4 6.9L 60.1 126.7L 78.7 134.2L 112.1 14.4ZM 78.7 134.2L 138 24.7L 119.9 16.2L 60.1 126.7ZM 119.9 16.2L 72.7 134.5L 90.7 143.3L 138 24.7ZM 90.7 143.3L 152.6 37.8L 134.2 29.7L 72.7 134.5ZM 134.2 29.7L 102.4 131L 120.7 139.4L 152.6 37.8ZM 120.7 139.4L 168.5 62L 150.7 52.8L 102.4 131ZM 150.7 52.8L 120.4 125.3L 138.8 133.1L 168.5 62Z" fill-rule="nonzero"></path></g></g><g id="4.g-4_fr_1q8v34tw8ssg1-fill" stroke="none" fill="#d1f4ff"><g><path d="M 104 221.1L 114.7 208.3L 99.4 195.5L 88.7 208.3Z" fill-rule="nonzero"></path></g></g></g><g id="g-root--1.line_fr_1hd82vxw8st8r-fill" data-item-order="-469919" transform="translate(146, 263)"></g><g id="g-root--1.line_1_fr_1cxekrhw8su11-fill" data-item-order="-469915" transform="translate(482, 263)"></g><g id="g-root--1.line_2_fr_142e1lpw8srnz-fill" data-item-order="-469911" transform="translate(314, 452)"></g><g id="g-root--1.line_3_fr_18i7jq5w8srnl-fill" data-item-order="-469907" transform="translate(650, 452)"></g><g id="g-root-tx_retrieve_6ieu5w8ss9b-fill" data-item-order="0" transform="translate(374, 170)"><g id="tx_retrieve_6ieu5w8ss9b-fill" stroke="none" fill="#484848"><g><text style="font: 15px &quot;Shantell Sans&quot;, cursive; white-space: pre;" font-size="15px" font-family="'Shantell Sans', cursive"><tspan x="30.53" y="32.5" dominant-baseline="ideographic">Retrieved information is </tspan><tspan x="26.55" y="50.5" dominant-baseline="ideographic">integrated into the LLM's </tspan><tspan x="13.83" y="68.5" dominant-baseline="ideographic">prompt through engineering.</tspan></text></g></g></g><g id="g-root-tx_dataisco_1hf3i59w8ss99-fill" data-item-order="0" transform="translate(38, 170)"><g id="tx_dataisco_1hf3i59w8ss99-fill" stroke="none" fill="#484848"><g><text style="font: 15px &quot;Shantell Sans&quot;, cursive; white-space: pre;" font-size="15px" font-family="'Shantell Sans', cursive"><tspan x="35.5" y="32.5" dominant-baseline="ideographic">Data is converted into </tspan><tspan x="13.97" y="50.5" dominant-baseline="ideographic">embeddings and stored in a </tspan><tspan x="55.07" y="68.5" dominant-baseline="ideographic">vector database.</tspan></text></g></g></g><g id="g-root-tx_augmenta_qssyhpw8ss9a-fill" data-item-order="0" transform="translate(404, 134)"><g id="tx_augmenta_qssyhpw8ss9a-fill" stroke="none" fill="#484848"><g><text style="font: bold 20px &quot;Shantell Sans&quot;, cursive; white-space: pre;" font-weight="bold" font-size="20px" font-family="'Shantell Sans', cursive"><tspan x="13.43" y="36" dominant-baseline="ideographic">Augmentation</tspan></text></g></g></g><g id="g-root-down_1hgyxelw8sr9k-fill" data-item-order="0" transform="translate(116, 356)"></g><g id="g-root-slid_zmkjh9w8u6me-fill" data-item-order="0" transform="translate(284, 356)"></g><g id="g-root-shar_4pgae5w8u6te-fill" data-item-order="0" transform="translate(452, 356)"></g><g id="g-root-2_1cza00tw8vkli-fill" data-item-order="0" transform="translate(620, 356)"></g><g id="g-root-tx_indexing_4kghp9w8st8k-fill" data-item-order="0" transform="translate(92, 134)"><g id="tx_indexing_4kghp9w8st8k-fill" stroke="none" fill="#484848"><g><text style="font: bold 20px &quot;Shantell Sans&quot;, cursive; white-space: pre;" font-weight="bold" font-size="20px" font-family="'Shantell Sans', cursive"><tspan x="17.38" y="36" dominant-baseline="ideographic">Indexing</tspan></text></g></g></g><g id="g-root-tx_retrieva_v6r1ctw8st8j-fill" data-item-order="0" transform="translate(122, 38)"><g id="tx_retrieva_v6r1ctw8st8j-fill" stroke="none" fill="#484848"><g><text style="font: bold 25px &quot;Shantell Sans&quot;, cursive; white-space: pre;" font-weight="bold" font-size="25px" font-family="'Shantell Sans', cursive"><tspan x="13.93" y="45" dominant-baseline="ideographic">Retrieval-Augmented Generation Process</tspan></text></g></g></g><g id="g-root-tx_retrieva_htf3q5w8x1j4-fill" data-item-order="0" transform="translate(260, 542)"><g id="tx_retrieva_htf3q5w8x1j4-fill" stroke="none" fill="#484848"><g><text style="font: bold 20px &quot;Shantell Sans&quot;, cursive; white-space: pre;" font-weight="bold" font-size="20px" font-family="'Shantell Sans', cursive"><tspan x="15.97" y="36" dominant-baseline="ideographic">Retrieval</tspan></text></g></g></g><g id="g-root-tx_generati_1hd82vxw8wyyy-fill" data-item-order="0" transform="translate(584, 542)"><g id="tx_generati_1hd82vxw8wyyy-fill" stroke="none" fill="#484848"><g><text style="font: bold 20px &quot;Shantell Sans&quot;, cursive; white-space: pre;" font-weight="bold" font-size="20px" font-family="'Shantell Sans', cursive"><tspan x="16.92" y="36" dominant-baseline="ideographic">Generation</tspan></text></g></g></g><g id="g-root-tx_thellmge_141rkilw8x0jv-fill" data-item-order="0" transform="translate(542, 578)"><g id="tx_thellmge_141rkilw8x0jv-fill" stroke="none" fill="#484848"><g><text style="font: 15px &quot;Shantell Sans&quot;, cursive; white-space: pre;" font-size="15px" font-family="'Shantell Sans', cursive"><tspan x="19.78" y="32.5" dominant-baseline="ideographic">The LLM generates output </tspan><tspan x="15.85" y="50.5" dominant-baseline="ideographic">using the augmented query </tspan><tspan x="22.73" y="68.5" dominant-baseline="ideographic">and retrieved documents.</tspan></text></g></g></g><g id="g-root-tx_adocumen_1uo2465w8x0jt-fill" data-item-order="0" transform="translate(206, 578)"><g id="tx_adocumen_1uo2465w8x0jt-fill" stroke="none" fill="#484848"><g><text style="font: 15px &quot;Shantell Sans&quot;, cursive; white-space: pre;" font-size="15px" font-family="'Shantell Sans', cursive"><tspan x="12.64" y="32.5" dominant-baseline="ideographic">A document retriever selects </tspan><tspan x="21.56" y="50.5" dominant-baseline="ideographic">relevant documents based </tspan><tspan x="50.94" y="68.5" dominant-baseline="ideographic">on the user query.</tspan></text></g></g></g><g id="g-root-0.g-0_fr_zkp47xw8stfl-stroke" data-item-order="-469979" transform="translate(62.21098327636719, 302)"><g id="0.g-0_fr_zkp47xw8stfl-stroke" fill="none" stroke-linecap="round" stroke-linejoin="round" stroke-miterlimit="4" stroke="#484848" stroke-width="2" stroke-dasharray="5.0, 7.0"><g><path d="M 177.589017 100C 175.289017 119.8 166.489017 136.8 154.989017 151.6C 141.189017 169.2 117.889017 177.7 93.789017 178C 70.589017 178.3 48.589017 169.5 34.389017 153.4C 21.389017 138.7 11.889017 120.8 9.989017 100M 345.589017 88C 343.989017 66.6 334.489017 47.4 319.889017 33.4C 304.889017 18.8 284.389017 9.3 261.789017 10C 238.089017 10.7 216.689017 19.8 201.389017 35.6C 188.089017 49.4 181.089017 67.9 177.989017 88M 513.589017 100C 511.889017 113.2 509.289017 126.1 502.189017 136.5C 494.989017 147.4 485.489017 156 475.489017 164.5C 463.589017 174.6 446.589017 176.6 429.789017 178C 407.889017 179.9 386.789017 170.6 372.789017 155.7C 358.589017 140.7 348.389017 121.9 345.989017 100M 681.589017 88C 680.189017 64.9 670.089017 43.2 652.589017 30.3C 636.889017 18.8 618.589017 11.9 597.789017 10C 576.789017 8.1 558.589017 19 542.789017 30.5C 525.289017 43.3 514.589017 65 513.989017 88"></path><path d="M 177.578001 100C 174.501601 143.5917 138.163501 178 93.789001 178C 49.414501 178 13.076501 143.5917 10.000001 100M 345.578 88C 342.5016 44.4083 306.1635 10 261.789 10C 217.4145 10 181.0765 44.4083 178 88M 513.578016 100C 510.501616 143.5917 474.163516 178 429.789016 178C 385.414516 178 349.076516 143.5917 346.000016 100M 681.578016 88C 678.501616 44.4083 642.163516 10 597.789016 10C 553.414516 10 517.076516 44.4083 514.000016 88"></path></g></g></g><g id="g-root-1.g-1_1_fr_de82otw8ssnf-stroke" data-item-order="-469968" transform="translate(56, 245)"><g id="1.g-1_1_fr_de82otw8ssnf-stroke" fill="none" stroke-linecap="round" stroke-linejoin="round" stroke-miterlimit="4" stroke="#484848" stroke-width="4"><g><path d="M 34 151C 34.6 162.6 36.8 173.6 42.3 183C 47.7 192.3 56.1 198.9 63.9 206.2C 72.9 214.8 86.7 216.4 100 217C 113.3 217.6 125.3 212.4 136.1 206.3C 146.3 200.4 155.4 191.4 159.3 180.1C 162.4 170.8 166 161.4 166 151C 165.9 114.5 136.4 83.2 100 85C 83.1 85.8 66.8 90.6 55.9 101.9C 43.3 114.9 32.3 131.6 34 151M 10 151C 9.3 154.3 12.8 157.8 16 157C 19.2 156.2 21.6 154.3 22 151C 22.4 147.7 19.3 144.3 16 145C 12.8 145.7 9.6 147.7 10 151"></path><path d="M 34 151C 34.000002 187.450795 63.549208 217.000002 100.000002 217.000002C 136.450795 217.000002 166.000002 187.450795 166.000002 151.000002C 166.000002 114.549208 136.450795 85.000002 100.000002 85.000002C 63.549208 85.000002 34.000002 114.549208 34.000002 151.000002M 10 151C 10 154.313709 12.686292 157 16 157C 19.313709 157 22 154.313709 22 151C 22 147.686292 19.313709 145 16 145C 12.686292 145 10 147.686292 10 151"></path></g></g><g id="1.g-1_1_fr_de82otw8ssnf-stroke" fill="none" stroke-linecap="round" stroke-linejoin="round" stroke-miterlimit="4" stroke="#484848" stroke-width="4"><g><path d="M 109 19C 109.3 24 105 27.9 100 28C 95 28.1 89.1 23.6 91 19C 92.9 14.4 95.1 9.4 100 10C 104.9 10.6 109.3 14 109 19"></path><path d="M 109 19C 109 23.9706 104.9706 28 100 28C 95.0294 28 91 23.9706 91 19C 91 14.0294 95.0294 10 100 10C 104.9706 10 109 14.0294 109 19Z"></path></g></g></g><g id="g-root-2.g-2_fr_8yekkdw8stfp-stroke" data-item-order="-469956" transform="translate(224, 320)"><g id="2.g-2_fr_8yekkdw8stfp-stroke" fill="none" stroke-linecap="round" stroke-linejoin="round" stroke-miterlimit="4" stroke="#484848" stroke-width="4"><g><path d="M 34 76C 33.7 93.3 39.9 109.7 51.5 120.8C 64.4 133 80.8 142.2 100 142C 112.9 141.9 125.5 139 135.2 131.8C 143.9 125.4 153.2 118.7 157.4 108.7C 161.6 98.4 166.9 87.8 166 76C 164.6 57.9 157.2 42.7 146.9 29.5C 136.4 16.2 118.3 8.4 100 10C 82.5 11.5 67.1 17.7 54.6 28.1C 41.1 39.3 34 57.2 34 76M 10 76C 10.3 79.3 12.7 82.6 16 82C 19.3 81.5 22.8 79.2 22 76C 21.2 72.8 19.2 70.8 16 70C 12.8 69.2 9.9 72.7 10 76"></path><path d="M 34 76C 34.000002 112.450795 63.549208 142.000002 100.000002 142.000002C 136.450795 142.000002 166.000002 112.450795 166.000002 76.000002C 166.000002 39.549208 136.450795 10.000002 100.000002 10.000002C 63.549208 10.000002 34.000002 39.549208 34.000002 76.000002M 10 76C 10 79.313709 12.686292 82 16 82C 19.313709 82 22 79.313709 22 76C 22 72.686292 19.313709 70 16 70C 12.686292 70 10 72.686292 10 76"></path></g></g><g id="2.g-2_fr_8yekkdw8stfp-stroke" fill="none" stroke-linecap="round" stroke-linejoin="round" stroke-miterlimit="4" stroke="#484848" stroke-width="4"><g><path d="M 109 208C 108.9 213 104.9 216 100 217C 95.1 218 91.2 213 91 208C 90.8 203 95.1 199.9 100 199C 104.9 198.1 108.4 203.1 109 208"></path><path d="M 109 208C 109 212.9706 104.9706 217 100 217C 95.0294 217 91 212.9706 91 208C 91 203.0294 95.0294 199 100 199C 104.9706 199 109 203.0294 109 208Z"></path></g></g></g><g id="g-root-3.g-3_1_fr_1uool99w8srnr-stroke" data-item-order="-469944" transform="translate(392, 245)"><g id="3.g-3_1_fr_1uool99w8srnr-stroke" fill="none" stroke-linecap="round" stroke-linejoin="round" stroke-miterlimit="4" stroke="#484848" stroke-width="4"><g><path d="M 34 151C 33.3 169.4 41.7 186 53.8 198.1C 65.5 210 82 217.9 100 217C 112.6 216.3 124.4 213.6 134.3 207.4C 144.6 200.9 153.2 192 158.7 181.1C 163.4 172.1 166.3 161.9 166 151C 165.6 134 160.9 117.2 149.1 106.9C 135.4 95 119.5 84.5 100 85C 82.6 85.4 67.6 92.7 55 102.8C 41.1 113.7 35.4 132 34 151M 10 151C 10.5 154.3 12.7 156.9 16 157C 19.3 157.1 21.8 154.3 22 151C 22.2 147.7 19.3 144.4 16 145C 12.7 145.6 9.5 147.7 10 151"></path><path d="M 34 151C 34.000002 187.450795 63.549208 217.000002 100.000002 217.000002C 136.450795 217.000002 166.000002 187.450795 166.000002 151.000002C 166.000002 114.549208 136.450795 85.000002 100.000002 85.000002C 63.549208 85.000002 34.000002 114.549208 34.000002 151.000002M 10 151C 10 154.313709 12.686292 157 16 157C 19.313709 157 22 154.313709 22 151C 22 147.686292 19.313709 145 16 145C 12.686292 145 10 147.686292 10 151"></path></g></g><g id="3.g-3_1_fr_1uool99w8srnr-stroke" fill="none" stroke-linecap="round" stroke-linejoin="round" stroke-miterlimit="4" stroke="#484848" stroke-width="4"><g><path d="M 109 19C 108.8 24 105 28.3 100 28C 95 27.7 91.9 23.9 91 19C 90.1 14.1 95 10.1 100 10C 105 9.9 109 14 109 19"></path><path d="M 109 19C 109 23.9706 104.9706 28 100 28C 95.0294 28 91 23.9706 91 19C 91 14.0294 95.0294 10 100 10C 104.9706 10 109 14.0294 109 19Z"></path></g></g></g><g id="g-root-4.g-4_fr_1q8v34tw8ssg1-stroke" data-item-order="-469932" transform="translate(560, 320)"><g id="4.g-4_fr_1q8v34tw8ssg1-stroke" fill="none" stroke-linecap="round" stroke-linejoin="round" stroke-miterlimit="4" stroke="#484848" stroke-width="4"><g><path d="M 34 76C 33.8 112.4 63.5 141.8 100 142C 118.6 142.1 136.6 135.4 147.4 122C 157.7 109 166.4 93.9 166 76C 165.6 58.4 160.3 41.2 147.9 30.6C 134.7 19.2 118.9 9.7 100 10C 88.9 10.2 78.6 13 69.3 17.6C 59.1 22.6 50 30.3 44.5 40.2C 38.6 51 34.3 62.8 34 76M 10 76C 10 79.3 12.9 80.9 16 82C 19.1 83.1 21.4 79.3 22 76C 22.6 72.7 19.1 68.8 16 70C 12.9 71.2 10.8 72.8 10 76M 178 76C 179 79.2 180.7 81.9 184 82C 187.3 82.1 190.3 79.3 190 76C 189.7 72.7 187.1 68.9 184 70C 180.9 71.1 177.3 72.8 178 76"></path><path d="M 34 76C 34.000002 112.450795 63.549208 142.000002 100.000002 142.000002C 136.450795 142.000002 166.000002 112.450795 166.000002 76.000002C 166.000002 39.549208 136.450795 10.000002 100.000002 10.000002C 63.549208 10.000002 34.000002 39.549208 34.000002 76.000002M 10 76C 10 79.313709 12.686292 82 16 82C 19.313709 82 22 79.313709 22 76C 22 72.686292 19.313709 70 16 70C 12.686292 70 10 72.686292 10 76M 178 76C 178 79.313709 180.686292 82 184 82C 187.313709 82 190 79.313709 190 76C 190 72.686292 187.313709 70 184 70C 180.686292 70 178 72.686292 178 76"></path></g></g><g id="4.g-4_fr_1q8v34tw8ssg1-stroke" fill="none" stroke-linecap="round" stroke-linejoin="round" stroke-miterlimit="4" stroke="#484848" stroke-width="4"><g><path d="M 109 208C 108.8 213 105 217.2 100 217C 95 216.8 91.6 212.9 91 208C 90.4 203.1 95 199.1 100 199C 105 198.9 107.3 203.3 109 208"></path><path d="M 109 208C 109 212.9706 104.9706 217 100 217C 95.0294 217 91 212.9706 91 208C 91 203.0294 95.0294 199 100 199C 104.9706 199 109 203.0294 109 208Z"></path></g></g></g><g id="g-root--1.line_fr_1hd82vxw8st8r-stroke" data-item-order="-469919" transform="translate(146, 263)"><g id="-1.line_fr_1hd82vxw8st8r-stroke" fill="none" stroke-linecap="round" stroke-linejoin="round" stroke-miterlimit="4" stroke="#484848" stroke-width="2"><g><path d="M 10 67C 8.8 48 11.3 29 10 10"></path><path d="M 10 67L 10 10"></path></g></g></g><g id="g-root--1.line_1_fr_1cxekrhw8su11-stroke" data-item-order="-469915" transform="translate(482, 263)"><g id="-1.line_1_fr_1cxekrhw8su11-stroke" fill="none" stroke-linecap="round" stroke-linejoin="round" stroke-miterlimit="4" stroke="#484848" stroke-width="2"><g><path d="M 10 67C 9.6 48 10.7 29 10 10"></path><path d="M 10 67L 10 10"></path></g></g></g><g id="g-root--1.line_2_fr_142e1lpw8srnz-stroke" data-item-order="-469911" transform="translate(314, 452)"><g id="-1.line_2_fr_142e1lpw8srnz-stroke" fill="none" stroke-linecap="round" stroke-linejoin="round" stroke-miterlimit="4" stroke="#484848" stroke-width="2"><g><path d="M 10 67C 10 48 10.3 29 10 10"></path><path d="M 10 67L 10 10"></path></g></g></g><g id="g-root--1.line_3_fr_18i7jq5w8srnl-stroke" data-item-order="-469907" transform="translate(650, 452)"><g id="-1.line_3_fr_18i7jq5w8srnl-stroke" fill="none" stroke-linecap="round" stroke-linejoin="round" stroke-miterlimit="4" stroke="#484848" stroke-width="2"><g><path d="M 10 67C 9 48 10.2 29 10 10"></path><path d="M 10 67L 10 10"></path></g></g></g><g id="g-root-tx_retrieve_6ieu5w8ss9b-stroke" data-item-order="0" transform="translate(374, 170)"></g><g id="g-root-tx_dataisco_1hf3i59w8ss99-stroke" data-item-order="0" transform="translate(38, 170)"></g><g id="g-root-tx_augmenta_qssyhpw8ss9a-stroke" data-item-order="0" transform="translate(404, 134)"></g><g id="g-root-down_1hgyxelw8sr9k-stroke" data-item-order="0" transform="translate(116, 356)"><g id="down_1hgyxelw8sr9k-stroke" fill="none" stroke-linecap="round" stroke-linejoin="round" stroke-miterlimit="4" stroke="#484848" stroke-width="2"><g><path d="M 38.25 40C 37.75 41.75 36.75 43 35 43.5C 28.5 45.25 21 41 14.5 43.5C 12.75 44 10.75 41.75 11.25 40C 13.5 31.75 12 23 11.25 14.75C 11 12.75 12.75 11 14.5 11.25C 19 11.75 23.5 11.75 28 11.25C 28.75 11.25 29.5 11.75 30.25 12.25C 33 14.25 35.25 16.75 37.25 19.25C 38 20 38.5 20.75 38.25 21.75C 37 27.75 38 34 38.25 40M 34.25 60.25C 30.75 60.75 26.75 61.25 23 60.25C 21.75 59.75 20.5 59 20.5 57.75C 21 55.5 20.5 53.25 20.5 51M 38.25 35C 36.75 32.25 33.75 30.5 32 27.75C 31.75 27.25 31 27.25 30.5 27C 29.75 27 29.25 27.25 28.75 27.75C 26.25 30.5 24.5 34.25 21.5 36C 20.25 35 18.25 34.25 17.25 32.75C 16.75 32 15.25 32.25 14.25 33C 13 33.75 12.25 35 11.25 36M 19.75 20C 21 19.75 22 21 22.25 22.5C 22.25 24 21 24.75 19.75 25C 18.25 25.25 17.25 24 17.25 22.5C 17.25 21 18.25 19.75 19.75 20M 29.25 65.25C 31.5 64 33 62 34.25 60.25C 32.5 58.5 30.5 57.25 29.25 55.25M 57.5 47.25C 63.75 47.75 69 45.5 68.75 43.5C 68.5 41.5 63.5 41.5 57.5 40C 51.5 38.5 46 41.5 46.25 43.5C 46.5 45.5 51.25 46.5 57.5 47.25M 46.25 54.25C 45.5 50.75 46 47.25 46.25 43.5M 68.75 43.5C 68.75 47.25 69 50.75 68.75 54.25M 68.75 54.25C 69.25 58 68.5 61.5 68.75 65.25C 68.75 67.25 63.5 67 57.5 68.75C 51.5 70.5 46.25 67.25 46.25 65.25C 46.25 61.5 45.75 58 46.25 54.25M 68.75 50.5C 68.75 52.5 63.25 52 57.5 54.25C 51.75 56.5 46.75 52.5 46.25 50.5M 68.75 58C 68.25 60 63.75 60.75 57.5 61.75C 51.5 62.75 46.5 60 46.25 58"></path><path d="M 38.3125 40.022499C 38.311119 41.892387 36.794888 43.407501 34.924999 43.407501L 14.615 43.407501C 12.745516 43.407501 11.23 41.891983 11.23 40.022499L 11.23 14.635C 11.23 12.765516 12.745516 11.25 14.615 11.25L 27.8825 11.25C 28.781178 11.252273 29.642008 11.612077 30.275002 12.25L 37.32 19.2925C 37.958302 19.92626 38.318115 20.788012 38.32 21.6875ZM 34.355 60.162502L 23.105 60.162502C 21.724289 60.162502 20.605 59.043213 20.605 57.662502L 20.605 51.087498M 38.3125 34.945L 32.0975 27.844999C 31.672432 27.355364 31.056797 27.072908 30.408401 27.070034C 29.760006 27.067162 29.14189 27.344151 28.7125 27.83L 21.385 36.080002L 17.3225 32.830002C 16.426889 32.111462 15.133907 32.182575 14.3225 32.994999L 11.23 36.072498M 19.6675 20C 21.048212 20 22.1675 21.119287 22.1675 22.5C 22.1675 23.880713 21.048212 25 19.6675 25C 18.286787 25 17.1675 23.880713 17.1675 22.5C 17.1675 21.119287 18.286787 20 19.6675 20M 29.355 65.162498L 34.355 60.162502L 29.355 55.162502M 57.519997 47.149998C 63.732498 47.149998 68.769997 45.537498 68.769997 43.549999C 68.769997 41.5625 63.732498 39.949997 57.519997 39.949997C 51.307503 39.949997 46.27 41.5625 46.27 43.549999C 46.27 45.537498 51.305 47.149998 57.519997 47.149998ZM 46.27 54.349998L 46.27 43.549999M 68.769997 43.549999L 68.769997 54.349998M 68.769997 54.349998L 68.769997 65.150002C 68.769997 67.150002 63.732498 68.75 57.519997 68.75C 51.307503 68.75 46.27 67.137497 46.27 65.150002L 46.27 54.349998M 68.769997 50.599998C 68.769997 52.600002 63.732498 54.200001 57.519997 54.200001C 51.307503 54.200001 46.27 52.587502 46.27 50.599998M 68.769997 58.099998C 68.769997 60.100002 63.732498 61.700001 57.519997 61.700001C 51.307503 61.700001 46.27 60.087502 46.27 58.099998"></path></g></g></g><g id="g-root-slid_zmkjh9w8u6me-stroke" data-item-order="0" transform="translate(284, 356)"><g id="slid_zmkjh9w8u6me-stroke" fill="none" stroke-linecap="round" stroke-linejoin="round" stroke-miterlimit="4" stroke="#484848" stroke-width="2"><g><path d="M 42.5 56.25C 36.5 58.25 29.5 58.5 23.75 56.25C 23 56 22.5 55.75 22.5 55C 24 41 21.75 26.75 22.5 12.5C 22.5 11.75 23 11.5 23.75 11.25C 33.5 8.75 43.75 12 53.75 11.25C 54.5 11.25 54.75 11.75 55 12.5C 57.25 22.75 58.75 34 55 43.75M 22.5 51.25C 19.75 52 16.5 50.5 13.75 51.25C 13 51.5 12.5 50.75 12.5 50C 12.5 39.25 14.75 28.25 12.5 17.5C 12.25 16.75 13 16.25 13.75 16.25C 16.5 16.75 19.5 16.25 22.5 16.25M 55 16.25C 58 16 61 17.25 63.75 16.25C 64.5 16 65 16.75 65 17.5C 64 27.5 62.75 37.75 65 47.5M 28.75 21.25C 35.25 22.5 42 21.5 48.75 21.25M 28.75 28.75C 35.25 28.25 42.25 29.75 48.75 28.75M 28.75 36.25C 32.75 35.25 37 36 41.25 36.25M 67.5 68.75C 63.75 66.75 61 63 58.25 59.5M 52.5 66.5C 52.75 67 53.25 67.75 54 67.5C 54.5 67.25 55 67.25 55.5 66.5C 56.5 64.25 57.25 62 58.25 59.5C 60.5 58.25 63.5 58.25 65.5 56.5C 66 56.25 66.5 55.5 66.25 55C 66 54.5 65.75 54 65.25 53.5C 60.5 50.5 53.5 52 49 48.25C 48.5 48 48 48.5 47.5 48.75C 47 49 47 49.75 47 50.25C 47 56 49 62 52.5 66.5"></path><path d="M 42.5 56.25L 23.75 56.25C 23.059643 56.25 22.5 55.690353 22.5 55L 22.5 12.5C 22.5 11.809644 23.059643 11.25 23.75 11.25L 53.75 11.25C 54.440353 11.25 55 11.809644 55 12.5L 55 43.75M 22.5 51.25L 13.75 51.25C 13.059644 51.25 12.5 50.690353 12.5 50L 12.5 17.5C 12.5 16.809645 13.059644 16.25 13.75 16.25L 22.5 16.25M 55 16.25L 63.75 16.25C 64.440353 16.25 65 16.809645 65 17.5L 65 47.5M 28.75 21.25L 48.75 21.25M 28.75 28.75L 48.75 28.75M 28.75 36.25L 41.25 36.25M 67.5 68.75L 58.325001 59.575001M 52.5 66.449997C 52.709805 67.047775 53.262283 67.457703 53.895206 67.485222C 54.528137 67.512741 55.114105 67.152313 55.375 66.575005L 58.375 59.575001L 65.375 56.574997C 65.973183 56.290836 66.324753 55.658016 66.25 55C 66.229225 54.358963 65.809578 53.799435 65.199997 53.600002L 49 48.299999C 48.446766 48.122147 47.840523 48.268696 47.429611 48.679611C 47.018696 49.090523 46.872147 49.696766 47.050003 50.25Z"></path></g></g></g><g id="g-root-shar_4pgae5w8u6te-stroke" data-item-order="0" transform="translate(452, 356)"><g id="shar_4pgae5w8u6te-stroke" fill="none" stroke-linecap="round" stroke-linejoin="round" stroke-miterlimit="4" stroke="#484848" stroke-width="2"><g><path d="M 44.5 11.25C 51.5 9.75 59 11.75 66.25 11.25C 66.25 11.25 68.25 11.25 68.75 13.75C 70 20.5 68.5 27.5 68.75 34.25C 68.75 34.25 68.75 36 66.25 36.75C 59.25 38.75 51.75 37.25 44.5 36.75C 44.5 36.75 42.5 36.75 42 34.25C 40.25 27.75 40 20.25 42 13.75C 42 13.75 42 12 44.5 11.25M 42 20C 50.5 22.75 60 21.25 68.75 20M 42 28.5C 50.75 30 60.25 25.5 68.75 28.5M 54 20C 52 25.25 52 31.5 54 36.75M 61.25 20C 62.5 25.5 61.5 31.25 61.25 36.75M 22.75 27C 21.25 29 18.75 30.5 17 32.5C 17.5 30.75 17.5 28.75 17 27C 18.25 23 20.75 18.25 24.75 19.75C 27.75 20 31 20.25 34.25 19.75M 11.25 27C 13.25 28.75 15.25 30.75 17 32.5M 28.5 14C 30.75 15.5 33 17.25 34.25 19.75C 32.25 21.5 29.75 22.75 28.5 25.25M 13.75 39.25C 18.5 40 23.25 39.75 27.75 39.25C 27.75 39.25 31 39.5 30.5 42C 28.75 49.75 30.25 58 30.5 66.25C 30.5 66.25 30.25 69.5 27.75 68.75C 23.25 67.5 18.25 67.5 13.75 68.75C 13.75 68.75 11.25 68.75 11.25 66.25C 11 58 9.25 49.75 11.25 42C 11.25 42 11.25 39 13.75 39.25M 11.25 61C 17.75 61 24.25 62.5 30.5 61"></path><path d="M 44.4725 11.25L 66.195 11.25C 66.195 11.25 68.75 11.25 68.75 13.805L 68.75 34.25C 68.75 34.25 68.75 36.805 66.195 36.805L 44.4725 36.805C 44.4725 36.805 41.9175 36.805 41.9175 34.25L 41.9175 13.805C 41.9175 13.805 41.9175 11.25 44.4725 11.25M 41.9175 19.952499L 68.75 19.952499M 41.9175 28.380001L 68.75 28.380001M 54.052502 19.952499L 54.052502 36.805M 61.247501 19.952499L 61.247501 36.805M 22.75 27L 17 32.5L 17 27C 17.082024 22.847841 20.515373 19.548824 24.6675 19.6325L 34.25 19.6325M 11.25 27L 17 32.512501M 28.5 14.1125L 34.25 19.6325L 28.5 25.1525M 13.805 39.360001L 27.862499 39.360001C 27.862499 39.360001 30.4175 39.360001 30.4175 41.915001L 30.4175 66.195C 30.4175 66.195 30.4175 68.75 27.862499 68.75L 13.805 68.75C 13.805 68.75 11.25 68.75 11.25 66.195L 11.25 41.915001C 11.25 41.915001 11.25 39.360001 13.805 39.360001M 11.25 61.0825L 30.4175 61.0825"></path></g></g></g><g id="g-root-2_1cza00tw8vkli-stroke" data-item-order="0" transform="translate(620, 356)"><g id="2_1cza00tw8vkli-stroke" fill="none" stroke-linecap="round" stroke-linejoin="round" stroke-miterlimit="4" stroke="#484848" stroke-width="2"><g><path d="M 22 36.25C 27.25 34.75 31.75 34.5 32 32.25C 32 30 27.5 28.25 22 28.25C 16.25 28.25 12 30 12 32.25C 11.75 34.5 16.5 35.25 22 36.25M 12 32.25C 12.25 37.5 12.5 43 12 48.25C 11.5 50.5 16.5 53 22 52.25C 27.25 51.5 31.75 50.5 32 48.25C 32.25 43 31 37.5 32 32.25M 61.5 18.5C 65 17.5 68 17 68 15C 67.75 13 65 10.5 61.5 11.5C 58.25 12.5 54.75 13 55 15C 55.25 16.75 58.25 19.5 61.5 18.5M 55 15C 55.5 18 54.25 21.25 55 24C 55.75 25.75 58 27.5 61.5 27.5C 65 27.5 68.5 25.75 68 24C 67 21 67 18 68 15M 61.5 39.25C 65 39 68.5 37.5 68 35.75C 67.25 34 65 31.5 61.5 32.25C 58 33 54.5 34 55 35.75C 55.5 37.5 58 39 61.5 39.25M 55 35.75C 54.5 38.75 56 42 55 44.75C 54.5 46.5 58 48.5 61.5 48.25C 65 48.25 68.25 46.75 68 44.75C 67.5 41.75 68 38.75 68 35.75M 61.5 59.5C 65 59 68.5 57.75 68 56C 67.25 54.25 65 51.5 61.5 52.5C 58 53.5 54.75 54 55 56C 55.5 57.75 58 60.25 61.5 59.5M 55 56C 55.75 59 55.5 62 55 65C 54.75 67 58.25 67.25 61.5 68.5C 64.75 69.75 68 67 68 65C 67.75 62 67.5 59 68 56M 49 19.25C 47.5 19.75 45.75 19.75 44 19.25C 47.25 32.75 44 47 44 60.75C 45.75 61 47.5 61.25 49 60.75M 49 40C 45.5 39.5 41.5 41.25 37.75 40M 12 40.25C 12.25 42.5 16.25 45.25 22 44.25C 27.5 43 32.25 42.5 32 40.25"></path><path d="M 21.875 36.250252C 27.39785 36.250252 31.875 34.45945 31.875 32.250298C 31.875 30.041176 27.39785 28.250299 21.875 28.250299C 16.35215 28.250299 11.875 30.041176 11.875 32.250298C 11.875 34.45945 16.35215 36.250252 21.875 36.250252ZM 11.875 32.249924L 11.875 48.25C 11.875 50.5 16.375 52.25 21.875 52.25C 27.375 52.25 31.875 50.5 31.875 48.25L 31.875 32.249924M 61.503502 18.43325C 65.038254 18.43325 67.903503 16.881176 67.903503 14.9666C 67.903503 13.052 65.038254 11.49992 61.503502 11.49992C 57.968998 11.49992 55.1035 13.052 55.1035 14.9666C 55.1035 16.881176 57.968998 18.43325 61.503502 18.43325ZM 55.1035 14.966725L 55.1035 24.033375C 55.1035 25.900051 58.036999 27.50005 61.503502 27.50005C 64.970253 27.50005 67.903503 25.900051 67.903503 24.033375L 67.903503 14.966725M 61.503502 39.200253C 65.038254 39.200253 67.903503 37.648003 67.903503 35.733498C 67.903503 33.818924 65.038254 32.26685 61.503502 32.26685C 57.968998 32.26685 55.1035 33.818924 55.1035 35.733498C 55.1035 37.648003 57.968998 39.200253 61.503502 39.200253ZM 55.1035 35.733749L 55.1035 44.800251C 55.1035 46.667 58.036999 48.266998 61.503502 48.266998C 64.970253 48.266998 67.903503 46.667 67.903503 44.800251L 67.903503 35.733749M 61.503502 59.43325C 65.038254 59.43325 67.903503 57.881248 67.903503 55.966499C 67.903503 54.052002 65.038254 52.5 61.503502 52.5C 57.968998 52.5 55.1035 54.052002 55.1035 55.966499C 55.1035 57.881248 57.968998 59.43325 61.503502 59.43325ZM 55.1035 55.966751L 55.1035 65.033501C 55.1035 66.900002 58.036999 68.5 61.503502 68.5C 64.970253 68.5 67.903503 66.900002 67.903503 65.033501L 67.903503 55.966751M 49.114498 19.25L 44.114498 19.25L 44.114498 60.75L 49.114498 60.75M 49.114498 40L 37.864498 40M 11.875 40.327751C 11.875 42.442249 16.199326 44.172001 21.87505 44.172001C 27.550751 44.172001 31.875074 42.442249 31.875074 40.327751"></path></g></g></g><g id="g-root-tx_indexing_4kghp9w8st8k-stroke" data-item-order="0" transform="translate(92, 134)"></g><g id="g-root-tx_retrieva_v6r1ctw8st8j-stroke" data-item-order="0" transform="translate(122, 38)"></g><g id="g-root-tx_retrieva_htf3q5w8x1j4-stroke" data-item-order="0" transform="translate(260, 542)"></g><g id="g-root-tx_generati_1hd82vxw8wyyy-stroke" data-item-order="0" transform="translate(584, 542)"></g><g id="g-root-tx_thellmge_141rkilw8x0jv-stroke" data-item-order="0" transform="translate(542, 578)"></g><g id="g-root-tx_adocumen_1uo2465w8x0jt-stroke" data-item-order="0" transform="translate(206, 578)"></g></g></g></svg>