<?xml version="1.0" encoding="utf-8" standalone="yes"?>
<!DOCTYPE svg PUBLIC "-//W3C//DTD SVG 1.1//EN" "http://www.w3.org/Graphics/SVG/1.1/DTD/svg11.dtd">
<svg width="1032" height="720" viewBox="0 0 1032 720" style="fill:none;stroke:none;fill-rule:evenodd;clip-rule:evenodd;stroke-linecap:round;stroke-linejoin:round;stroke-miterlimit:1.5;" version="1.1" xmlns="http://www.w3.org/2000/svg" xmlns:xlink="http://www.w3.org/1999/xlink"><style class="text-font-style fontImports" data-font-family="Shantell Sans">@import url('https://fonts.googleapis.com/css2?family=Shantell+Sans:wght@300..800&amp;display=block');</style><g id="items" style="isolation: isolate"><g id="blend" style="mix-blend-mode: normal"><g id="g-root-cp_4_g-4_1qf2poujhbguf-fill" data-item-order="-614012" transform="translate(290, 121.80810546875)"><g id="cp_4_g-4_1qf2poujhbguf-fill" stroke="none" fill="#fff8b6"><g><path d="M 221.6 18.2L 214.1 9.9L 198.8 22.8L 206.7 31.6ZM 198.8 22.8L 254.8 94.5L 269.1 80.2L 214.1 9.9ZM 269.1 80.2L 204.3 29.1L 190 43.3L 254.8 94.5ZM 190 43.3L 247.6 116.7L 261.8 102.3L 204.3 29.1ZM 261.8 102.3L 176.9 37.1L 163.2 51.7L 247.6 116.7ZM 163.2 51.7L 235.5 133.6L 249.3 118.9L 176.9 37.1ZM 249.3 118.9L 148.9 41.3L 135.2 55.9L 235.5 133.6ZM 135.2 55.9L 222.7 154.3L 236.3 139.5L 148.9 41.3ZM 236.3 139.5L 125.8 56.2L 112.7 71.3L 222.7 154.3ZM 112.7 71.3L 207 165.1L 218.1 147.9L 125.8 56.2ZM 218.1 147.9L 206.9 146.1L 195.5 146.9L 180.4 152.7L 92.1 85.5L 78.3 100.2L 166.2 167.1L 192.4 168.9L 202.5 163.3L 207 165.1ZM 78.3 100.2L 154.2 186.6L 168.1 172.1L 92.1 85.5ZM 168.1 172.1L 76.3 98.3L 62.9 113.2L 154.2 186.6ZM 62.9 113.2L 146.2 197.3L 159 181.8L 76.3 98.3ZM 159 181.8L 60.3 115L 47.5 130.4L 146.2 197.3ZM 47.5 130.4L 133.5 217.5L 146.4 202L 60.3 115ZM 146.4 202L 48.1 135.1L 35.3 150.6L 133.5 217.5ZM 35.3 150.6L 126.7 241.7L 139.7 226.4L 48.1 135.1ZM 139.7 226.4L 37.8 152.4L 25 167.9L 126.7 241.7ZM 25 167.9L 125.4 261.8L 138 246.2L 37.8 152.4ZM 138 246.2L 33.1 173.7L 19.2 188.4L 125.4 261.8ZM 19.2 188.4L 63.2 245.2L 77.6 231.1L 33.1 173.7ZM 77.6 231.1L 30.7 193.2L 14.8 206.2L 63.2 245.2ZM 14.8 206.2L 44.7 263.5L 60.2 250L 30.7 193.2ZM 60.2 250L 18.1 219.8L 3.1 233.7L 44.7 263.5ZM 3.1 233.7L 25 269.4L 39.5 254.8L 18.1 219.8ZM 39.5 254.8L 18.5 242.2L 2.6 255.9L 25 269.4ZM 2.6 255.9L 15.8 287.9L 28.2 265.7L 18.5 242.2ZM 28.2 265.7L 7.6 268.9L 10.7 288.6L 15.8 287.9ZM 211.9 145.5L 112.7 71.4L 100.8 87.4L 199.9 161.6Z" fill-rule="nonzero"></path></g></g></g><g id="g-root-cp_3_g-3_1lz97kejhbhmp-fill" data-item-order="-614008" transform="translate(266, 350)"><g id="cp_3_g-3_1lz97kejhbhmp-fill" stroke="none" fill="#e9ffb9"><g><path d="M 250.2 293.3L 250 293.6L 242.6 271.5L 235.1 280.2ZM 242.6 271.5L 208.6 264.3L 210.7 285.2L 250 293.6ZM 210.7 285.2L 232.4 275.7L 227.7 255.9L 208.6 264.3ZM 227.7 255.9L 176.8 258.4L 182.8 278.1L 232.4 275.7ZM 182.8 278.1L 222.3 254.3L 215.2 235.2L 176.8 258.4ZM 215.2 235.2L 145.8 247.3L 152.8 266.4L 222.3 254.3ZM 152.8 266.4L 208.1 234L 199.9 215.7L 145.8 247.3ZM 199.9 215.7L 127.8 238.7L 136.1 257L 208.1 234ZM 136.1 257L 235.6 197.2L 226.9 179.1L 127.8 238.7ZM 226.9 179.1L 109.5 222.4L 117.8 240.7L 235.6 197.2ZM 117.8 240.7L 235 176.9L 226.7 158.6L 109.5 222.4ZM 226.7 158.6L 91.6 208.1L 99.7 226.4L 235 176.9ZM 99.7 226.4L 210.9 168L 203 149.6L 91.6 208.1ZM 203 149.6L 74.2 193.6L 82.4 211.9L 210.9 168ZM 82.4 211.9L 188.6 151.1L 180.6 132.6L 74.2 193.6ZM 180.6 132.6L 63.5 169L 71.1 187.6L 188.6 151.1ZM 71.1 187.6L 174 134.8L 166.4 116.2L 63.5 169ZM 166.4 116.2L 50.1 152.6L 57.9 171.1L 174 134.8ZM 57.9 171.1L 159.8 115.8L 151.9 97.4L 50.1 152.6ZM 151.9 97.4L 45.1 132.7L 53.4 151.1L 159.8 115.8ZM 53.4 151.1L 158.5 89.2L 149.7 71.2L 45.1 132.7ZM 149.7 71.2L 34.7 117.2L 43.7 135.1L 158.5 89.2ZM 43.7 135.1L 152.4 68.2L 144.1 49.9L 34.7 117.2ZM 144.1 49.9L 34.7 83.4L 42.2 102.1L 152.4 68.2ZM 42.2 102.1L 138.4 53.3L 130.7 34.7L 34.7 83.4ZM 130.7 34.7L 27.8 68.4L 35.7 86.9L 138.4 53.3ZM 35.7 86.9L 117.4 43.2L 117.8 20.3L 27.8 68.4ZM 117.8 20.3L 93.8 6.4L 93.1 29.1L 117.4 43.2ZM 93.1 29.1L 101.4 24.9L 92.4 7L 93.8 6.4ZM 166.3 86.6L 174.6 81.1L 163.7 64.4L 155.3 69.8Z" fill-rule="nonzero"></path></g></g></g><g id="g-root-cp_2_g-2_1d3m7bijhbiff-fill" data-item-order="-614004" transform="translate(458, 370.572998046875)"><g id="cp_2_g-2_1d3m7bijhbiff-fill" stroke="none" fill="#c8ffe5"><g><path d="M 70.4 284.8L 75 288L 88.3 272.9L 81.9 268.4ZM 88.3 272.9L 17.3 195.7L 3.9 210.7L 75 288ZM 3.9 210.7L 84.2 269.3L 97.8 254.5L 17.3 195.7ZM 97.8 254.5L 34 181.7L 20.4 196.4L 84.2 269.3ZM 20.4 196.4L 110.1 264L 123.7 249.2L 34 181.7ZM 123.7 249.2L 49.9 165.6L 36.2 180.3L 110.1 264ZM 36.2 180.3L 130.6 253.1L 144.5 238.6L 49.9 165.6ZM 144.5 238.6L 65.2 144.4L 51.4 159L 130.6 253.1ZM 51.4 159L 161.8 241.7L 174.7 226.4L 65.2 144.4ZM 174.7 226.4L 81.9 138.5L 69.1 154L 161.8 241.7ZM 69.1 154L 179.2 233.5L 192.5 218.4L 81.9 138.5ZM 192.5 218.4L 111.7 131.8L 98.5 146.9L 179.2 233.5ZM 98.5 146.9L 195.2 216.7L 208.8 201.9L 111.7 131.8ZM 208.8 201.9L 131.8 112.3L 117.7 126.6L 195.2 216.7ZM 117.7 126.6L 207.1 200.4L 220.7 185.8L 131.8 112.3ZM 220.7 185.8L 145.5 106.6L 132 121.4L 207.1 200.4ZM 132 121.4L 218.3 189.6L 232.2 175.1L 145.5 106.6ZM 232.2 175.1L 151.3 81.4L 137.7 96.3L 218.3 189.6ZM 137.7 96.3L 231.7 162.9L 245.2 147.9L 151.3 81.4ZM 245.2 147.9L 164.9 57.2L 151.2 71.9L 231.7 162.9ZM 151.2 71.9L 247.4 146.1L 260.3 130.8L 164.9 57.2ZM 260.3 130.8L 159.4 37.7L 146.8 53.3L 247.4 146.1ZM 146.8 53.3L 248.4 125.4L 263.3 111.4L 159.4 37.7ZM 263.3 111.4L 227.2 52.7L 212 66.3L 248.4 125.4ZM 212 66.3L 259.6 103.2L 274.9 89.7L 227.2 52.7ZM 274.9 89.7L 244.7 39.5L 229.1 52.3L 259.6 103.2ZM 229.1 52.3L 262.8 83.1L 279.6 71.3L 244.7 39.5ZM 279.6 71.3L 260.3 24.1L 244.2 37.7L 262.8 83.1ZM 244.2 37.7L 263.5 49.6L 281.6 37.3L 260.3 24.1ZM 281.6 37.3L 277.3 12.6L 257.5 15.5L 263.5 49.6ZM 257.5 15.5L 259 26.9L 278.8 24.4L 277.3 12.6ZM 62.6 147.2L 79.4 157.4L 89.8 140.2L 73 130.1Z" fill-rule="nonzero"></path></g></g></g><g id="g-root-cp_1_g-1_18efkwejhcumd-fill" data-item-order="-614000" transform="translate(502.51800537109375, 145.80712890625)"><g id="cp_1_g-1_18efkwejhcumd-fill" stroke="none" fill="#d1f4ff"><g><path d="M 15.4 5.1L 14.9 5.6L 23.5 26.4L 30.6 18ZM 23.5 26.4L 57.4 29.2L 53.9 8.9L 14.9 5.6ZM 53.9 8.9L 25.6 21.8L 30.6 41.5L 57.4 29.2ZM 30.6 41.5L 93.7 36.5L 89.1 16.8L 25.6 21.8ZM 89.1 16.8L 39.8 36.2L 44.7 55.8L 93.7 36.5ZM 44.7 55.8L 117.6 47.2L 111.3 27.8L 39.8 36.2ZM 111.3 27.8L 61.1 55.7L 68.3 74.6L 117.6 47.2ZM 68.3 74.6L 138.8 59.4L 131.8 40.5L 61.1 55.7ZM 131.8 40.5L 36.6 91.8L 44.3 110.4L 138.8 59.4ZM 44.3 110.4L 161.6 75L 153.9 56.5L 36.6 91.8ZM 153.9 56.5L 34 120.9L 42.4 139.1L 161.6 75ZM 42.4 139.1L 171.8 88.3L 163.1 70.2L 34 120.9ZM 163.1 70.2L 60.4 130.5L 69.2 148.6L 171.8 88.3ZM 69.2 148.6L 187.6 102.3L 178.8 84.3L 60.4 130.5ZM 178.8 84.3L 72.6 146.2L 80.7 164.6L 187.6 102.3ZM 80.7 164.6L 200.6 126.6L 192.5 108.3L 72.6 146.2ZM 192.5 108.3L 92.8 166.8L 101.5 184.8L 200.6 126.6ZM 101.5 184.8L 207.6 143.9L 198.8 125.9L 92.8 166.8ZM 198.8 125.9L 97.2 186.4L 106.1 204.3L 207.6 143.9ZM 106.1 204.3L 220.4 157.6L 211.5 139.7L 97.2 186.4ZM 211.5 139.7L 103.4 203.7L 111.5 222.1L 220.4 157.6ZM 111.5 222.1L 227.2 187.3L 219.7 168.7L 103.4 203.7ZM 219.7 168.7L 112.2 224.1L 120.5 242.3L 227.2 187.3ZM 120.5 242.3L 226.8 199.9L 217.7 182L 112.2 224.1ZM 217.7 182L 120.6 243.3L 129.5 261.4L 226.8 199.9ZM 129.5 261.4L 236.5 222.7L 227.6 204.7L 120.6 243.3ZM 227.6 204.7L 149.9 254.7L 150.2 278.3L 236.5 222.7ZM 150.2 278.3L 167.4 288.8L 176.2 270.8L 149.9 254.7ZM 176.2 270.8L 167.7 267.5L 160.6 286.2L 167.4 288.8ZM 99.2 207.7L 91.2 209.3L 95 228.9L 103 227.3Z" fill-rule="nonzero"></path></g></g></g><g id="g-root-tx_navigate_qn5kemjhfnre-fill" data-item-order="0" transform="translate(86, 223.80712890625)"><g id="tx_navigate_qn5kemjhfnre-fill" stroke="none" fill="#484848"><g><text style="font: bold 20px &quot;Shantell Sans&quot;, cursive; white-space: pre;" font-weight="bold" font-size="20px" font-family="'Shantell Sans', cursive"><tspan x="12" y="36" dominant-baseline="ideographic">Navigate </tspan><tspan x="12" y="60" dominant-baseline="ideographic">Environment</tspan></text></g></g></g><g id="g-root-tx_engagein_1ut0sjyjhe8lo-fill" data-item-order="0" transform="translate(782, 217.80712890625)"><g id="tx_engagein_1ut0sjyjhe8lo-fill" stroke="none" fill="#484848"><g><text style="font: bold 20px &quot;Shantell Sans&quot;, cursive; white-space: pre;" font-weight="bold" font-size="20px" font-family="'Shantell Sans', cursive"><tspan x="12" y="36" dominant-baseline="ideographic">Engage in </tspan><tspan x="12" y="60" dominant-baseline="ideographic">Reasoning</tspan></text></g></g></g><g id="g-root-ic_east_dcbj4ejhcveo-fill" data-item-order="0" transform="translate(362, 241.80712890625)"></g><g id="g-root-ic_1_magfpqjhebk3-fill" data-item-order="0" transform="translate(602, 241.80712890625)"></g><g id="g-root-tx_effectiv_8vvjwujhfq4j-fill" data-item-order="0" transform="translate(62, 283.80712890625)"><g id="tx_effectiv_8vvjwujhfq4j-fill" stroke="none" fill="#484848"><g><text style="font: 15px &quot;Shantell Sans&quot;, cursive; white-space: pre;" font-size="15px" font-family="'Shantell Sans', cursive"><tspan x="12" y="29.5" dominant-baseline="ideographic">Effectively interacting </tspan><tspan x="12" y="47.5" dominant-baseline="ideographic">with surroundings</tspan></text></g></g></g><g id="g-root-tx_thinking_146q8wejhe8lp-fill" data-item-order="0" transform="translate(782, 277.80712890625)"><g id="tx_thinking_146q8wejhe8lp-fill" stroke="none" fill="#484848"><g><text style="font: 15px &quot;Shantell Sans&quot;, cursive; white-space: pre;" font-size="15px" font-family="'Shantell Sans', cursive"><tspan x="12" y="29.5" dominant-baseline="ideographic">Thinking to understand </tspan><tspan x="12" y="47.5" dominant-baseline="ideographic">experiences</tspan></text></g></g></g><g id="g-root-tx_learnand_1qeg8lqjhebk0-fill" data-item-order="0" transform="translate(38, 445.80712890625)"><g id="tx_learnand_1qeg8lqjhebk0-fill" stroke="none" fill="#484848"><g><text style="font: bold 20px &quot;Shantell Sans&quot;, cursive; white-space: pre;" font-weight="bold" font-size="20px" font-family="'Shantell Sans', cursive"><tspan x="21.22" y="36" dominant-baseline="ideographic">Learn and Adapt</tspan></text></g></g></g><g id="g-root-tx_actinfor_mfg8emjheayu-fill" data-item-order="0" transform="translate(782, 445.80712890625)"><g id="tx_actinfor_mfg8emjheayu-fill" stroke="none" fill="#484848"><g><text style="font: bold 20px &quot;Shantell Sans&quot;, cursive; white-space: pre;" font-weight="bold" font-size="20px" font-family="'Shantell Sans', cursive"><tspan x="12" y="36" dominant-baseline="ideographic">Act Informedly</tspan></text></g></g></g><g id="g-root-tx_improvin_147z72mjheart-fill" data-item-order="0" transform="translate(38, 481.80712890625)"><g id="tx_improvin_147z72mjheart-fill" stroke="none" fill="#484848"><g><text style="font: 15px &quot;Shantell Sans&quot;, cursive; white-space: pre;" font-size="15px" font-family="'Shantell Sans', cursive"><tspan x="21.23" y="29.5" dominant-baseline="ideographic">Improving skills through </tspan><tspan x="123.05" y="47.5" dominant-baseline="ideographic">experience</tspan></text></g></g></g><g id="g-root-ic_3_18jfdlajhcu15-fill" data-item-order="0" transform="translate(362, 482)"></g><g id="g-root-ic_3_8z6vijhcwsq-fill" data-item-order="0" transform="translate(602, 482)"></g><g id="g-root-tx_makingde_8z6vijhea6n-fill" data-item-order="0" transform="translate(782, 481.80712890625)"><g id="tx_makingde_8z6vijhea6n-fill" stroke="none" fill="#484848"><g><text style="font: 15px &quot;Shantell Sans&quot;, cursive; white-space: pre;" font-size="15px" font-family="'Shantell Sans', cursive"><tspan x="12" y="29.5" dominant-baseline="ideographic">Making decisions based </tspan><tspan x="12" y="47.5" dominant-baseline="ideographic">on understanding</tspan></text></g></g></g><g id="g-root-cp_4_g-4_1qf2poujhbguf-stroke" data-item-order="-614012" transform="translate(290, 121.80810546875)"><g id="cp_4_g-4_1qf2poujhbguf-stroke" fill="none" stroke-linecap="round" stroke-linejoin="round" stroke-miterlimit="4" stroke="#484848" stroke-width="4"><g><path d="M 10 250C 10.8 263.1 8.3 276.4 10 289.4C 20.3 282.8 29 274 37.9 265.5C 48.1 255.8 59.1 247 70 238C 78.2 247 88.1 254.5 97.8 261.9C 109.1 270.4 120 279.5 130 289.4C 128.9 276.3 129.7 263.1 130 250C 130.6 225.7 138.7 203.3 153.8 186.7C 166.6 172.6 183.4 163.1 202 157C 202.3 164 201.6 171 202 178C 213.2 162 228 148.8 240.1 133.5C 250.9 119.9 261.7 106.2 274 94C 262.1 80.2 250.2 66.4 238.5 52.5C 226.4 38.3 213.7 24.6 202 10C 200.6 18.3 202.7 26.9 202 35.3C 185.7 37.6 170.1 41.9 154.7 46C 139 50.3 124.4 57.9 111.2 67C 99.2 75.2 87.8 84.2 76.8 93.8C 65.2 103.9 55.6 116.3 46.9 129.2C 39.6 140.1 34.4 152.3 27.9 163.8C 20.7 176.5 18.4 191.5 14.5 205.9C 10.7 219.9 10.2 234.9 10 250"></path><path d="M 10 249.9999L 10 289.4286L 70 238L 130 289.4286L 130 249.9999C 130 205.2678 160.5946 167.6814 202 157.0244L 202 178L 274 94L 202 10L 202 35.3182C 94.0012 47.2569 10 138.8187 10 249.9999Z"></path></g></g></g><g id="g-root-cp_3_g-3_1lz97kejhbhmp-stroke" data-item-order="-614008" transform="translate(266, 350)"><g id="cp_3_g-3_1lz97kejhbhmp-stroke" fill="none" stroke-linecap="round" stroke-linejoin="round" stroke-miterlimit="4" stroke="#484848" stroke-width="4"><g><path d="M 202 226C 210.8 216.9 219.1 207.4 226.6 197.3C 234.8 186.2 244.4 176.3 253.5 165.9C 252.3 166.1 251.2 166 250 166C 225.5 166.4 204 155.9 186.2 141.8C 168.5 127.7 158.2 105.6 154.7 82C 162.5 81.9 170.5 80.2 178 82C 168.5 74.6 158.4 67.6 150.6 58.5C 143 49.6 131.9 44.1 123.9 35.6C 114.9 26.1 103.8 18.7 94 10C 78.5 21.8 64.5 35.4 49.6 48C 36.4 59.3 23.8 71.5 10 82C 18.1 82.9 26.4 80.4 34.3 82C 35.9 109.8 44.3 135.4 53.6 160.1C 63.5 186.4 82.8 207.5 102.1 227.4C 122.2 248.2 148 263.6 176 273C 199.3 280.8 224 285.6 250 286C 251.1 286 252.3 286.2 253.4 286C 235 267.2 219.1 246.1 202 226"></path><path d="M 202 226L 253.4816 165.9381C 252.3262 165.9793 251.1655 166.0001 250 166.0001C 201.0446 166.0001 160.6479 129.3558 154.7427 82L 178 82L 94 10L 10 82L 34.3277 82C 40.5542 195.7119 134.7332 286 250 286C 251.1374 286 252.2728 285.9911 253.406 285.9736L 202 226Z"></path></g></g></g><g id="g-root-cp_2_g-2_1d3m7bijhbiff-stroke" data-item-order="-614004" transform="translate(458, 370.572998046875)"><g id="cp_2_g-2_1d3m7bijhbiff-stroke" fill="none" stroke-linecap="round" stroke-linejoin="round" stroke-miterlimit="4" stroke="#484848" stroke-width="4"><g><path d="M 274 49.4C 273 36.3 273 23.1 274 10C 253.3 26.3 234.4 44.7 214 61.4C 193.8 44.5 173.9 27.3 154 10C 153.4 23.1 155.5 36.4 154 49.4C 151.4 72.2 146.4 93.9 132.5 110C 119.3 125.3 102.1 137.1 82 142.4C 82.9 135.5 82.1 128.4 82 121.4C 69.8 133.5 60.5 148.3 48.5 160.5C 34.7 174.5 23.3 190.9 10 205.4C 23.1 219.9 35.1 235.2 48.1 249.8C 59.6 262.8 70.7 276.2 82 289.4C 83.5 281.1 81.9 272.5 82 264.1C 101.3 261.9 119.5 256.2 137.4 250.4C 154.8 244.7 171.5 236.1 185 224.1C 197.9 212.8 211.5 202.3 222.6 189.3C 233.8 176.1 241.8 160.6 251.3 146C 260.4 131.9 263.7 114.8 268.4 98.3C 272.9 82.8 274.4 66.2 274 49.4"></path><path d="M 274 49.4286L 274 10L 214 61.4286L 154 10L 154 49.4286C 154 94.1608 123.4054 131.7472 82 142.4042L 82 121.4286L 10 205.4286L 82 289.4286L 82 264.1104C 189.9988 252.1717 274 160.6099 274 49.4286Z"></path></g></g></g><g id="g-root-cp_1_g-1_18efkwejhcumd-stroke" data-item-order="-614000" transform="translate(502.51800537109375, 145.80712890625)"><g id="cp_1_g-1_18efkwejhcumd-stroke" fill="none" stroke-linecap="round" stroke-linejoin="round" stroke-miterlimit="4" stroke="#484848" stroke-width="4"><g><path d="M 61.5 70C 43.2 89 25.6 108.8 10 130.1C 11.1 130.4 12.3 129.9 13.5 130C 31 131.8 47.6 134.6 61.7 143C 73.7 150.1 84.6 159.2 92.1 170.9C 100.4 183.7 106.4 198.1 108.7 214C 101 213.1 93.2 213.1 85.5 214C 114.1 237.3 141.3 262.2 169.5 286C 182.5 272.6 197 260.4 212.2 249.4C 226.8 238.8 239.8 225.9 253.5 214C 245.4 213.5 237.2 215.2 229.2 214C 229.7 197.3 224.3 181.4 220.9 165.6C 217.9 151.7 211.7 138.9 205.3 126.5C 198.2 113 190.6 99.4 180.1 88.5C 168.4 76.5 156.6 64.6 143.9 53.8C 132.8 44.4 120.1 37.1 106.8 31.1C 93 25 78.9 19 63.8 15.9C 47.5 12.5 30.8 10.2 13.5 10C 12.3 10 11.2 10.4 10.1 10C 19.4 19 26 30.6 35.4 39.6C 45.1 48.7 53.3 59.4 61.5 70"></path><path d="M 61.4816 70L 10 130.0619C 11.1555 130.0207 12.3161 129.9999 13.4816 129.9999C 62.4371 129.9999 102.8338 166.6442 108.7389 214L 85.4816 214L 169.4816 286L 253.4816 214L 229.1539 214C 222.9274 100.2881 128.7485 10 13.4816 10C 12.3442 10 11.2089 10.0089 10.0756 10.0264L 61.4816 70Z"></path></g></g></g><g id="g-root-tx_navigate_qn5kemjhfnre-stroke" data-item-order="0" transform="translate(86, 223.80712890625)"></g><g id="g-root-tx_engagein_1ut0sjyjhe8lo-stroke" data-item-order="0" transform="translate(782, 217.80712890625)"></g><g id="g-root-ic_east_dcbj4ejhcveo-stroke" data-item-order="0" transform="translate(362, 241.80712890625)"><g id="ic_east_dcbj4ejhcveo-stroke" fill="none" stroke-linecap="round" stroke-linejoin="round" stroke-miterlimit="4" stroke="#484848" stroke-width="2"><g><path d="M 20.200001 25C 20.200001 32.599998 26.200001 38.200001 33.599998 38.599998C 41.200001 39 45.799999 32.400002 47.200001 25C 48.599998 17.799999 40.599998 8.8 33.599998 11.6C 26.799999 14.4 21 17.6 20.200001 25M 27.200001 20.6C 31.4 22 35.400002 24.799999 40 25C 35.400002 25.4 31.4 28.200001 27.200001 29.6C 28 28.200001 28.799999 26.6 29.6 25C 28.6 23.6 27.6 22.200001 27.200001 20.6M 33.599998 11.6C 33.799999 12.4 33.599998 13.2 33.599998 14M 33.599998 36.200001C 33.799999 37 33.599998 37.799999 33.599998 38.599998M 10 10M 47.200001 25C 46.400002 25 45.599998 25.4 44.799999 25M 10 10M 22.6 25C 21.799999 25 21 25.4 20.200001 25M 10 10M 38 44.200001C 35.400002 45 32.599998 43.799999 30 44.200001C 31 48.200001 31.200001 52.400002 30 56.200001C 32.599998 56.599998 35.400002 55.799999 38 56.200001M 30 49.799999C 32.400002 49.599998 34.599998 49.599998 37 49.799999"></path><path d="M 20.189999 25.062C 20.190001 32.517845 26.234156 38.562 33.690002 38.562C 41.145844 38.562 47.189999 32.517845 47.189999 25.062C 47.189999 17.606155 41.145844 11.562 33.690002 11.562C 26.234156 11.562 20.190001 17.606155 20.190001 25.062M 27.16214 20.52356L 39.982002 25.09206L 27.16214 29.660561L 29.586241 25.09206L 27.16214 20.52356ZM 33.571999 11.621582L 33.571999 13.984819M 33.571999 36.1992L 33.571999 38.562401M 10 10M 47.190201 25.092041L 44.827 25.092041M 10 10M 22.553421 25.092041L 20.19018 25.092041M 10 10M 38 44.25L 30 44.25L 30 56.25L 38 56.25M 30 49.75L 37 49.75"></path></g></g></g><g id="g-root-ic_1_magfpqjhebk3-stroke" data-item-order="0" transform="translate(602, 241.80712890625)"><g id="ic_1_magfpqjhebk3-stroke" fill="none" stroke-linecap="round" stroke-linejoin="round" stroke-miterlimit="4" stroke="#484848" stroke-width="2"><g><path d="M 19.4 56.599998C 18.4 52.400002 19.799999 48.200001 19.4 44C 17.200001 40.799999 14.2 38.200001 13.8 34.400002C 13.4 30.6 12.4 26.4 14.6 23.4C 16.799999 20.4 18.6 17 21.6 14.8C 24.6 12.6 28.4 12 32.200001 11.6C 46.200001 9.6 48.200001 23.799999 54.599998 36.400002C 54.599998 36.599998 54.799999 37 54.599998 37.200001C 54.599998 37.400002 54.599998 37.599998 54.400002 37.799999C 54.200001 38 54 38.200001 53.799999 38.400002C 53.599998 38.400002 53.400002 38.599998 53.200001 38.599998C 51.799999 38.400002 50.599998 38.599998 49.400002 38.599998C 49.400002 40.599998 50 42.599998 49.400002 44.599998C 48.799999 46 48.799999 47.799999 47.599998 48.799999C 46.400002 49.799999 45 50.400002 43.400002 50.599998C 42.400002 50.599998 41.400002 50.400002 40.400002 50.599998C 40.200001 52.599998 40 54.599998 40.400002 56.599998M 41.200001 25.200001C 40.799999 25.4 40.599998 25.799999 40.200001 25.799999C 41.799999 26.6 42.200001 28.4 43.599998 29.200001C 42.400002 30.4 41.400002 31.799999 40.200001 32.799999C 39 31.200001 37 31.799999 35.400002 32.799999C 33.799999 33.599998 34.400002 35.799999 35.400002 37.599998C 34 38.400002 33.200001 40.200001 31.799999 41.200001C 31 39.799999 29.6 38.799999 28.4 37.599998C 28.200001 37.799999 28 38 27.799999 38.200001C 26.6 39.799999 24.6 39.200001 23 38.200001C 21.200001 37.200001 21.799999 34.799999 22.799999 33.400002C 23 33 23.200001 33 23.4 32.799999C 22.4 31.6 21.4 30.200001 20 29.4C 21.6 28.799999 22.200001 27 23.4 25.799999C 24.799999 27.4 27.4 27.6 28.4 26C 29.4 24.200001 30.200001 22 28.4 21C 29.799999 20 31 18.799999 31.799999 17.4C 32.799999 18.799999 34.400002 19.6 35.400002 21C 35.400002 20.6 35.799999 20.200001 36 20C 37.799999 18.799999 39.799999 18.6 41.200001 20C 42.799999 21.200001 42.599998 23.6 41.200001 25.200001"></path><path d="M 19.350719 56.5L 19.350719 43.970001C 16.587181 41.409798 14.65988 38.075798 13.82048 34.4034C 12.9811 30.731001 13.26862 26.89068 14.64554 23.384159C 16.02244 19.87764 18.424721 16.8678 21.538681 14.7477C 24.652641 12.6276 28.33354 11.495768 32.1008 11.500012C 46.378799 11.500012 49.4608 23.25602 54.5508 36.459999C 54.638 36.687401 54.668598 36.9324 54.639999 37.174202C 54.611401 37.416 54.524601 37.647202 54.386799 37.848C 54.249001 38.048599 54.064602 38.212799 53.849201 38.326401C 53.633801 38.440002 53.394199 38.499599 53.150799 38.5L 49.3508 38.5L 49.3508 44.5C 49.3508 46.0914 48.718601 47.617401 47.593399 48.742599C 46.468201 49.867802 44.942001 50.5 43.3508 50.5L 40.3508 50.5L 40.3508 56.5M 41.253201 25.137981C 40.951 25.440159 40.6096 25.67922 40.2458 25.85512L 43.641998 29.25144L 40.174202 32.7192C 38.848 31.393 36.699799 31.3908 35.3764 32.714401C 34.052799 34.038002 34.055 36.186001 35.381203 37.512199L 31.7796 41.113998L 28.320761 37.655197C 28.18668 37.872398 28.025681 38.0774 27.837681 38.2654C 26.501261 39.601799 24.3069 39.5742 22.93642 38.2038C 21.565941 36.833199 21.538319 34.638802 22.874741 33.302399C 23.06274 33.114403 23.267719 32.9534 23.48498 32.819401L 20.02636 29.3608L 23.490181 25.89698C 24.87608 27.28282 27.104259 27.30158 28.46698 25.93886C 29.8297 24.576141 29.81094 22.34798 28.4251 20.962059L 31.8888 17.498301L 35.3386 20.947941C 35.5144 20.58396 35.753403 20.242661 36.055599 19.940479C 37.4972 18.49894 39.829201 18.493839 41.264603 19.9291C 42.699799 21.364361 42.694599 23.696461 41.253201 25.137981Z"></path></g></g></g><g id="g-root-tx_effectiv_8vvjwujhfq4j-stroke" data-item-order="0" transform="translate(62, 283.80712890625)"></g><g id="g-root-tx_thinking_146q8wejhe8lp-stroke" data-item-order="0" transform="translate(782, 277.80712890625)"></g><g id="g-root-tx_learnand_1qeg8lqjhebk0-stroke" data-item-order="0" transform="translate(38, 445.80712890625)"></g><g id="g-root-tx_actinfor_mfg8emjheayu-stroke" data-item-order="0" transform="translate(782, 445.80712890625)"></g><g id="g-root-tx_improvin_147z72mjheart-stroke" data-item-order="0" transform="translate(38, 481.80712890625)"></g><g id="g-root-ic_3_18jfdlajhcu15-stroke" data-item-order="0" transform="translate(362, 482)"><g id="ic_3_18jfdlajhcu15-stroke" fill="none" stroke-linecap="round" stroke-linejoin="round" stroke-miterlimit="4" stroke="#484848" stroke-width="2"><g><path d="M 10 10M 16 19.6C 15.6 19.6 15.2 19.4 14.8 19.6C 13 19.799999 12 20.799999 11.6 22.6C 9.6 30 9.2 38.400002 11.6 45.799999C 12 47.200001 12.8 48.599998 14.4 48.799999C 26.200001 48.799999 33.599998 53 34 56.599998C 34.799999 53 42.400002 52.599998 53.599998 48.799999C 55.200001 48.200001 56.799999 47.200001 56.599998 45.799999C 55.200001 38 55 30 56.599998 22.6C 56.799999 20.799999 55 19.4 53.200001 19.6C 52.799999 19.6 52.400002 19.4 52 19.6M 34 29.200001C 33.200001 38.200001 35.200001 47.400002 34 56.599998M 45.400002 11.6C 41.799999 15.4 37.799999 19 34 23C 32.400002 21.200001 30.6 19.6 29 18C 26 20.799999 23.799999 24.6 20 26.200001M 37 11.6C 39.799999 12.2 42.599998 11.2 45.400002 11.6C 46 14.2 44.799999 17.200001 45.400002 20"></path><path d="M 10 10M 15.919661 19.5L 14.7143 19.5C 12.90626 19.5 11.5 20.700001 11.5 22.5L 11.5 45.700001C 11.5 47.299999 12.705339 48.700001 14.31248 48.700001C 26.165159 49.299999 32.995598 53.099998 34 56.5C 35.004402 53.099998 41.834801 49.299999 53.687599 48.700001C 55.294601 48.700001 56.5 47.299999 56.5 45.700001L 56.5 22.5C 56.5 20.700001 55.0938 19.5 53.285801 19.5L 52.080399 19.5M 34 29.125L 34 56.5M 45.400002 11.5L 34 22.9L 29.00004 17.9L 20.00004 26.29998M 37 11.5L 45.400002 11.5L 45.400002 19.9"></path></g></g></g><g id="g-root-ic_3_8z6vijhcwsq-stroke" data-item-order="0" transform="translate(602, 482)"><g id="ic_3_8z6vijhcwsq-stroke" fill="none" stroke-linecap="round" stroke-linejoin="round" stroke-miterlimit="4" stroke="#484848" stroke-width="2"><g><path d="M 23.799999 44.599998C 28.200001 45.400002 32 41 31.799999 36.599998C 31.799999 32 28.200001 28.799999 23.799999 28.6C 19.4 28.200001 16.6 32.200001 15.8 36.599998C 15.2 40.799999 19.4 45 23.799999 44.599998M 11.6 56.599998C 11.2 51 18.4 45.599998 23.799999 47.599998C 29.4 49.400002 34.400002 51.400002 36.200001 56.599998M 56.599998 35.400002C 55 36 53.200001 35.599998 51.599998 35.400002C 48.599998 34.799999 46.200001 33.200001 45 30.4C 43.400002 27.6 41.200001 26.200001 38.400002 25.4C 37.200001 25.200001 36 25 35 25.4C 33.400002 26 31.6 24 32 22.4C 32.200001 20.799999 33.400002 19.6 35 19.4C 38.200001 18.799999 41.799999 18.4 45 19.4C 45.400002 19.6 46 19 46.599998 18.4C 46.799999 17.799999 46.799999 16.799999 46 16.6C 45.400002 15 44.599998 13.2 46 12.4C 47.599998 11.4 49 11.4 50.400002 12.4C 52.599998 14.2 55.200001 16 56.599998 18.6"></path><path d="M 23.873039 44.5C 28.291321 44.5 31.872999 40.918198 31.872999 36.5C 31.872999 32.081802 28.291321 28.5 23.873039 28.5C 19.45476 28.5 15.87304 32.081802 15.87304 36.5C 15.87304 40.918198 19.45476 44.5 23.873039 44.5ZM 11.5 56.5C 13.187099 51.277401 18.0889 47.5 23.87298 47.5C 29.657061 47.5 34.5588 51.277401 36.246002 56.5M 56.5 35.395599L 51.5 35.395599C 48.5 35.395599 45.700001 33.395599 44.900002 30.395599C 44.099998 27.395599 41.299999 25.395599 38.299999 25.395599L 34.900002 25.395599C 33.299999 25.395599 31.9 23.9956 31.9 22.395599C 31.9 20.795601 33.299999 19.395599 34.900002 19.395599L 44.900002 19.395599C 45.5 19.395599 46.099998 18.9956 46.5 18.395599C 46.700001 17.795601 46.699799 16.995621 46.0998 16.595619C 44.899799 15.39562 44.899799 13.5956 46.0998 12.3956C 47.299801 11.195606 49.099998 11.195606 50.299999 12.3956L 56.5 18.595619"></path></g></g></g><g id="g-root-tx_makingde_8z6vijhea6n-stroke" data-item-order="0" transform="translate(782, 481.80712890625)"></g></g></g></svg>